<?xml version="1.0" encoding="utf-8"?>
<!-- Generator: Adobe Illustrator 14.0.0, SVG Export Plug-In . SVG Version: 6.00 Build 43363)  -->
<!DOCTYPE svg PUBLIC "-//W3C//DTD SVG 1.1//EN" "http://www.w3.org/Graphics/SVG/1.1/DTD/svg11.dtd">
<svg version="1.1" id="Layer_1" xmlns="http://www.w3.org/2000/svg" xmlns:xlink="http://www.w3.org/1999/xlink" x="0px" y="0px"
	 width="50.238px" height="51.229px" viewBox="0 0 50.238 51.229" enable-background="new 0 0 50.238 51.229" xml:space="preserve">
<path fill="#FFFFFF" d="M16.695,45.646C8.786,43.303-14.03,33.286,11.826,0c13.98,9.488,19.367,17.837,20.365,24.735
	c-6.688,2.396-11.292,7.051-10.718,15.476c-3.642-8.662-6.5-20.644-7.726-28.113C13.132,20.823,14.42,36.345,16.695,45.646"/>
<path fill="#FFFFFF" d="M25.646,47.737c-1.926-5.351-5.926-22.749,23.959-21.79c0.877,27.33-13.599,26.321-20.172,24.477
	c2.721-5.297,6.224-10.077,10.656-14.114C34.652,39.32,29.808,43.14,25.646,47.737"/>
</svg>
