<?xml version="1.0" encoding="UTF-8" standalone="no"?>
<svg width="2238px" height="347px" viewBox="0 0 2238 347" version="1.1" xmlns="http://www.w3.org/2000/svg" xmlns:xlink="http://www.w3.org/1999/xlink" xmlns:sketch="http://www.bohemiancoding.com/sketch/ns">
    <!-- Generator: Sketch 3.5.2 (25235) - http://www.bohemiancoding.com/sketch -->
    <title>Untitled 3</title>
    <desc>Created with Sketch.</desc>
    <defs></defs>
    <g id="Page-1" stroke="none" stroke-width="1" fill="none" fill-rule="evenodd" sketch:type="MSPage">
        <g id="SVGID_21_-link" sketch:type="MSLayerGroup" transform="translate(1375.000000, 0.000000)" fill="#96E5B5">
            <path d="M0.4,0 L0.4,81.9 L17.4,81.9 L17.4,345.5 L142.1,345.5 L142.1,0 L0.4,0 Z" id="SVGID_21_" sketch:type="MSShapeGroup"></path>
        </g>
        <g id="SVGID_23_-link" sketch:type="MSLayerGroup" transform="translate(1529.000000, 1.000000)" fill="#95E5B5">
            <path d="M134.1,262.2 L146.4,262.2 L146.4,224.8 L134.1,224.8 L134.1,262.2 L134.1,262.2 Z M22,0 L0.3,21.7 L0.3,323.8 L22,345.5 L249.3,345.5 L271,323.8 L271,163.5 L249.3,141.8 L134.1,141.8 L134.1,81.8 L146.4,81.8 L146.4,107.8 L271,107.8 L271,21.7 L249.3,0 L22,0 L22,0 Z" id="SVGID_23_" sketch:type="MSShapeGroup"></path>
        </g>
        <g id="Group" sketch:type="MSLayerGroup" transform="translate(1849.000000, 194.000000)" fill="#222222">
            <path d="M24.1,22 C24.1,23.3 23.9,24.6 23.4,25.7 C22.9,26.8 22.2,27.9 21.2,28.8 C20.3,29.7 19.2,30.4 18,30.9 C16.8,31.4 15.5,31.6 14.1,31.6 C12,31.6 10.3,31.2 9,30.5 C7.7,29.7 6.5,28.8 5.4,27.6 L5.4,31 L0.5,31 L0.5,21.2 L5.4,21.2 C6.8,24.7 9.3,26.5 12.8,26.5 C14.4,26.5 15.7,26.1 16.8,25.4 C17.9,24.7 18.3,23.7 18.3,22.5 C18.3,21.1 17.8,20.1 16.7,19.6 C15.6,19.1 13.9,18.7 11.5,18.4 C10.1,18.2 8.9,18 7.9,17.8 C7,17.6 6,17.3 5.1,16.8 C4.2,16.3 3.4,15.7 2.6,14.9 C1.2,13.4 0.5,11.5 0.5,9.3 C0.5,7.8 0.9,6.3 1.8,5 C2.6,3.7 3.8,2.6 5.2,1.9 C6.7,1.1 8.2,0.7 9.9,0.7 C11.3,0.7 12.6,0.9 13.6,1.3 C14.7,1.7 15.5,2.1 16.1,2.6 C16.7,3.1 17.3,3.7 18,4.4 L18,1.2 L22.7,1.2 L22.7,10 L18.1,10 C17.4,8.7 16.6,7.6 15.6,6.8 C14.6,5.9 13.1,5.5 11.1,5.5 C10.3,5.5 9.5,5.7 8.7,6 C7.9,6.3 7.4,6.8 6.9,7.3 C6.4,7.8 6.3,8.4 6.3,9.1 C6.3,9.8 6.5,10.3 6.8,10.8 C7.2,11.2 7.8,11.5 8.6,11.8 C9.4,12 10.7,12.2 12.3,12.4 C15.4,12.7 17.8,13.3 19.5,14.2 C21.3,15.2 22.5,16.4 23.2,17.8 C23.9,19.2 24.1,20.7 24.1,22 L24.1,22 Z" id="Shape" sketch:type="MSShapeGroup"></path>
            <path d="M50,31 L42.5,31 L42.5,15.8 C42.5,14.8 42.2,14 41.6,13.4 C41,12.8 40.2,12.5 39.2,12.5 C38.3,12.5 37.5,12.8 36.7,13.3 C35.9,13.9 35.3,14.6 34.9,15.5 C34.5,16.4 34.2,17.5 34.2,18.6 L34.2,26.5 L36.3,26.5 L36.3,30.9 L26.5,30.9 L26.5,26.5 L28.8,26.5 L28.8,4.2 L26.5,4.2 L26.5,0 L34.3,0 L34.3,11 C35.3,10.1 36.3,9.4 37.4,8.8 C38.5,8.2 39.7,7.9 41.1,7.9 C42.2,7.9 43.2,8.1 44,8.4 C44.9,8.7 45.6,9.2 46.2,9.8 C46.8,10.4 47.3,11.2 47.6,12 C47.9,12.8 48.1,13.8 48.1,14.9 L48.1,26.6 L50.2,26.6 L50.2,31 L50,31 Z" id="Shape" sketch:type="MSShapeGroup"></path>
            <path d="M74.9,19.7 C74.9,21.4 74.6,22.9 74.1,24.4 C73.6,25.8 72.8,27.1 71.8,28.2 C70.8,29.3 69.6,30.1 68.2,30.7 C66.9,31.3 65.4,31.6 63.9,31.6 C61.8,31.6 59.8,31.1 58.1,30.1 C56.4,29.1 55,27.7 54.1,25.8 C53.1,24 52.6,22 52.6,19.7 C52.6,17.5 53.1,15.5 54.1,13.7 C55.1,11.9 56.4,10.5 58.1,9.4 C59.8,8.3 61.8,7.9 63.9,7.9 C65.4,7.9 66.9,8.2 68.2,8.8 C69.5,9.4 70.7,10.3 71.7,11.3 C72.7,12.4 73.5,13.6 74.1,15.1 C74.7,16.5 74.9,18.1 74.9,19.7 L74.9,19.7 Z M69.1,19.6 C69.1,17.6 68.6,15.9 67.6,14.6 C66.6,13.3 65.3,12.6 63.7,12.6 C62.7,12.6 61.7,12.9 60.9,13.5 C60.1,14.1 59.5,14.9 59,16 C58.6,17.1 58.3,18.3 58.3,19.6 C58.3,21 58.5,22.2 59,23.3 C59.5,24.4 60.1,25.2 60.9,25.8 C61.7,26.4 62.6,26.7 63.7,26.7 C64.8,26.7 65.7,26.4 66.6,25.8 C67.4,25.2 68.1,24.4 68.5,23.3 C68.9,22.3 69.1,21.1 69.1,19.6 L69.1,19.6 Z" id="Shape" sketch:type="MSShapeGroup"></path>
            <path d="M110.4,12.9 L108.5,12.9 L103.7,31 L97.7,31 L94,15.4 L90.5,31 L84.5,31 L79.5,12.9 L77.6,12.9 L77.6,8.5 L86.6,8.5 L86.6,12.9 L84.3,12.9 L87.4,26.1 L91.1,8.5 L96.9,8.5 L100.7,25.9 L103.7,12.9 L101.5,12.9 L101.5,8.5 L110.5,8.5 L110.5,12.9 L110.4,12.9 Z" id="Shape" sketch:type="MSShapeGroup"></path>
            <path d="M139.3,31 L131,31 L131,23.6 C131,20.1 129.2,18.4 125.7,18.4 L121.5,18.4 L121.5,26.2 L123.6,26.2 L123.6,31 L113,31 L113,26.2 L115.5,26.2 L115.5,6.3 L113.1,6.3 L113.1,1.5 L126.7,1.5 C129.5,1.5 131.7,1.9 133.2,2.8 C134.7,3.7 135.8,4.7 136.3,5.9 C136.8,7.1 137.1,8.3 137.1,9.6 C137.1,11 136.9,12.1 136.4,13 C135.9,13.9 135.4,14.5 134.9,14.9 C134.3,15.3 133.7,15.7 133.1,16 C134.1,16.5 134.9,17.1 135.4,17.7 C136,18.3 136.4,19.2 136.6,20.3 C136.9,21.4 137,22.9 137,24.8 L137,26.3 L139.4,26.3 L139.4,31 L139.3,31 Z M131,9.8 C131,8.6 130.5,7.7 129.6,7.1 C128.7,6.5 127.3,6.2 125.4,6.2 L121.4,6.2 L121.4,13.7 L126.2,13.7 C127.7,13.7 128.9,13.4 129.7,12.7 C130.6,12 131,11.1 131,9.8 L131,9.8 Z" id="Shape" sketch:type="MSShapeGroup"></path>
            <path d="M169,20.8 C168.3,23.2 167.3,25.3 166.1,26.9 C164.9,28.5 163.4,29.8 161.5,30.6 C159.7,31.4 157.5,31.8 155,31.8 C152.3,31.8 150,31.1 147.9,29.8 C145.8,28.5 144.2,26.7 143,24.3 C141.8,21.9 141.3,19.3 141.3,16.2 C141.3,13.2 141.9,10.5 143,8.1 C144.1,5.7 145.7,3.8 147.7,2.5 C149.7,1.2 152,0.5 154.5,0.5 C156.1,0.5 157.4,0.7 158.6,1.1 C159.8,1.5 160.6,2 161.2,2.5 C161.8,3.1 162.5,3.8 163.1,4.6 L163.1,1.2 L168.3,1.2 L168.3,11.5 L162.9,11.5 C162.4,10.2 161.8,9.1 161.1,8.3 C160.4,7.5 159.5,6.8 158.6,6.4 C157.7,6 156.6,5.7 155.5,5.7 C153.1,5.7 151.2,6.6 149.8,8.5 C148.4,10.4 147.8,12.9 147.8,16.3 C147.8,17.9 148,19.3 148.3,20.6 C148.7,21.8 149.2,22.9 149.9,23.8 C150.6,24.7 151.4,25.4 152.4,25.9 C153.4,26.4 154.5,26.6 155.6,26.6 C157.7,26.6 159.5,25.8 161,24.2 C161.4,23.8 161.7,23.3 162,22.8 C162.3,22.3 162.6,21.6 162.9,20.8 L169,20.8 L169,20.8 Z" id="Shape" sketch:type="MSShapeGroup"></path>
            <path d="M199.4,31 L192.6,31 L190.7,24.6 L180.3,24.6 L178.4,31 L171.5,31 L171.5,26.2 L173.8,26.2 L182,1.4 L189.1,1.4 L197.2,26.2 L199.4,26.2 L199.4,31 L199.4,31 Z M189.4,20 L185.5,6.9 L181.5,20 L189.4,20 L189.4,20 Z" id="Shape" sketch:type="MSShapeGroup"></path>
        </g>
        <g id="Group" sketch:type="MSLayerGroup" transform="translate(1849.000000, 242.000000)" fill="#222222">
            <path d="M25.5,31 L22.1,31 L22.1,26.4 C21.3,27.7 20.6,28.6 19.9,29.2 C18.9,30 17.9,30.7 16.7,31.1 C15.5,31.5 14.3,31.8 13.1,31.8 C10.8,31.8 8.8,31.1 6.9,29.8 C5,28.5 3.6,26.6 2.5,24.2 C1.4,21.8 0.9,19.2 0.9,16.4 C0.9,13.5 1.4,10.9 2.5,8.5 C3.6,6.1 5,4.3 6.9,2.9 C8.8,1.5 10.8,0.9 13,0.9 C14.1,0.9 15.1,1 16.1,1.3 C17.1,1.6 18.1,2.1 19.1,2.8 C20.1,3.6 21,4.6 21.8,6 L21.8,1.4 L24.9,1.4 L24.9,10.8 L21.7,10.8 C21.3,9.3 20.8,8.1 20,7.2 C19.2,6.2 18.2,5.4 17.1,4.8 C16,4.2 14.9,3.9 13.7,3.9 C12.4,3.9 11,4.3 9.6,5.1 C8.2,5.9 7.1,7.3 6.2,9.1 C5.3,10.9 4.8,13.3 4.8,16.1 C4.8,17.8 5,19.4 5.5,21 C6,22.5 6.6,23.9 7.4,25 C8.2,26.1 9.1,27 10.2,27.6 C11.3,28.2 12.5,28.5 13.7,28.5 C14.6,28.5 15.6,28.3 16.4,28 C17.2,27.7 18.1,27.1 18.8,26.5 C19.5,25.9 20.2,25.1 20.7,24.3 C21.2,23.4 21.6,22.5 21.8,21.6 C21.9,21.1 22,20.3 22,19.2 L15.1,19.2 L15.1,16.3 L25.3,16.3 L25.3,31 L25.5,31 Z" id="Shape" sketch:type="MSShapeGroup"></path>
            <path d="M45.8,11.6 C44.7,11.4 43.9,11.3 43.4,11.3 C41.6,11.3 40.2,11.8 39.1,12.7 C38.1,13.7 37.4,14.7 37,15.7 C36.7,16.8 36.5,17.5 36.5,17.9 L36.5,28.3 L40.4,28.3 L40.4,30.9 L30.1,30.9 L30.1,28.3 L33.3,28.3 L33.3,11 L29.9,11 L29.9,8.3 L36.5,8.3 L36.5,13.5 C37,12.4 37.4,11.6 37.8,11.1 C38.2,10.6 38.6,10 39.2,9.5 C40.3,8.5 41.7,8 43.3,8 C43.8,8 44.6,8.1 45.7,8.2 L45.7,11.6 L45.8,11.6 Z" id="Shape" sketch:type="MSShapeGroup"></path>
            <path d="M69.4,31 L63,31 L63,27 C61.1,29.9 58.6,31.4 55.4,31.4 C54,31.4 52.8,31.1 51.7,30.5 C50.6,29.9 49.7,29.1 49.1,28.1 C48.5,27.1 48.2,25.9 48.2,24.6 C48.2,22.5 49.2,20.8 51.2,19.7 C53.2,18.5 56.4,17.8 60.8,17.4 C60.9,17.4 61.6,17.3 62.9,17.2 L62.9,14.9 C62.9,13.6 62.4,12.6 61.5,11.9 C60.6,11.1 59.4,10.8 57.8,10.8 C56.2,10.8 54.9,11.1 54.1,11.7 C53.3,12.3 52.7,13.3 52.4,14.8 L49,14.8 C49.2,13.7 49.6,12.8 49.9,12.1 C50.3,11.4 50.8,10.8 51.5,10.2 C53,8.9 55,8.3 57.5,8.3 C59.1,8.3 60.6,8.6 61.9,9.1 C63.2,9.6 64.2,10.5 64.9,11.6 C65.7,12.8 66,14.3 66,16.1 L66,28.5 L69.2,28.5 L69.2,31 L69.4,31 Z M63,23.1 L63,19.4 L60.9,19.6 C58.5,19.9 56.7,20.2 55.4,20.6 C54.1,21 53.2,21.5 52.6,22.1 C52,22.7 51.7,23.5 51.7,24.5 C51.7,25.7 52.2,26.7 53.1,27.5 C54,28.3 55.1,28.8 56.4,28.8 C57.6,28.8 58.8,28.5 59.8,27.8 C60.8,27.2 61.6,26.4 62.2,25.4 C62.7,24.7 63,23.8 63,23.1 L63,23.1 Z" id="Shape" sketch:type="MSShapeGroup"></path>
            <path d="M94.8,31 L88.4,31 L88.4,26.6 C87.4,28 86.3,29.1 85.2,30 C84.1,30.9 82.6,31.3 80.7,31.3 C79.1,31.3 77.7,30.8 76.3,29.8 C75,28.8 73.9,27.4 73.1,25.6 C72.3,23.8 71.9,21.9 71.9,19.9 C71.9,17.7 72.3,15.8 73.1,14 C73.9,12.2 75,10.8 76.4,9.8 C77.8,8.8 79.3,8.3 81,8.3 C82,8.3 83.1,8.6 84.1,9.1 C85.1,9.6 86.1,10.4 86.9,11.3 C87.2,11.6 87.7,12.2 88.3,13.2 L88.3,2.9 L84.9,2.9 L84.9,0.3 L91.5,0.3 L91.5,28.6 L94.7,28.6 L94.7,31 L94.8,31 Z M88.4,21.8 L88.4,17.5 C88.4,16.6 88.1,15.6 87.5,14.5 C86.9,13.4 86,12.6 85,11.9 C84,11.2 82.8,10.9 81.5,10.9 C80.7,10.9 79.9,11.1 79.2,11.6 C78.5,12.1 77.9,12.7 77.3,13.5 C76.8,14.3 76.3,15.3 76,16.4 C75.7,17.5 75.6,18.7 75.6,19.9 C75.6,21.7 75.8,23.2 76.3,24.5 C76.8,25.8 77.5,26.8 78.5,27.6 C79.5,28.4 80.5,28.7 81.7,28.7 C82.8,28.7 83.9,28.4 84.9,27.7 C85.9,27.1 86.8,26.2 87.4,25.2 C88.1,24.1 88.4,23 88.4,21.8 L88.4,21.8 Z" id="Shape" sketch:type="MSShapeGroup"></path>
            <path d="M120.4,31 L114,31 L114,26.6 C113.4,27.5 112.7,28.3 112.1,29 C111.5,29.7 110.6,30.3 109.6,30.8 C108.6,31.3 107.4,31.6 106,31.6 C104.8,31.6 103.8,31.3 102.9,30.7 C102,30.1 101.3,29.3 100.8,28.2 C100.3,27.1 100.1,25.9 100.1,24.6 L100.1,11 L97.1,11 L97.1,8.3 L103.3,8.3 L103.3,24 C103.3,25.4 103.7,26.6 104.4,27.5 C105.1,28.4 106.1,28.8 107.3,28.8 C108.9,28.8 110.4,28.1 111.8,26.7 C112.7,25.8 113.3,24.8 113.6,23.6 C113.9,22.5 114.1,20.7 114.1,18.4 L114.1,11 L111.1,11 L111.1,8.3 L117.4,8.3 L117.4,28.3 L120.5,28.3 L120.5,31 L120.4,31 Z" id="Shape" sketch:type="MSShapeGroup"></path>
            <path d="M144.2,31 L137.8,31 L137.8,27 C135.9,29.9 133.4,31.4 130.2,31.4 C128.8,31.4 127.6,31.1 126.5,30.5 C125.4,29.9 124.5,29.1 123.9,28.1 C123.3,27.1 123,25.9 123,24.6 C123,22.5 124,20.8 126,19.7 C128,18.5 131.2,17.8 135.6,17.4 C135.7,17.4 136.4,17.3 137.7,17.2 L137.7,14.9 C137.7,13.6 137.2,12.6 136.3,11.9 C135.4,11.1 134.1,10.8 132.6,10.8 C131,10.8 129.7,11.1 128.9,11.7 C128.1,12.3 127.5,13.3 127.2,14.8 L123.8,14.8 C124,13.7 124.4,12.8 124.7,12.1 C125.1,11.4 125.6,10.8 126.3,10.2 C127.8,8.9 129.8,8.3 132.3,8.3 C133.9,8.3 135.4,8.6 136.7,9.1 C138,9.6 139,10.5 139.7,11.6 C140.5,12.8 140.8,14.3 140.8,16.1 L140.8,28.5 L144,28.5 L144,31 L144.2,31 Z M137.8,23.1 L137.8,19.4 L135.7,19.6 C133.3,19.9 131.5,20.2 130.2,20.6 C128.9,21 128,21.5 127.4,22.1 C126.8,22.7 126.5,23.5 126.5,24.5 C126.5,25.7 127,26.7 127.9,27.5 C128.8,28.3 129.9,28.8 131.2,28.8 C132.4,28.8 133.6,28.5 134.6,27.8 C135.6,27.2 136.4,26.4 137,25.4 C137.5,24.7 137.8,23.8 137.8,23.1 L137.8,23.1 Z" id="Shape" sketch:type="MSShapeGroup"></path>
            <path d="M156.9,11 L151.4,11 L151.4,25.8 C151.4,26.7 151.5,27.3 151.6,27.8 C151.8,28.2 152.1,28.5 152.5,28.7 C152.9,28.9 153.6,28.9 154.5,28.9 L155.5,28.9 L156.7,28.9 L156.7,31.4 C155.5,31.5 154.2,31.5 152.8,31.5 C151.6,31.5 150.7,31.4 150,31.1 C149.3,30.8 148.8,30.4 148.6,29.7 C148.3,29 148.2,28.1 148.2,26.9 L148.2,11 L144.3,11 L144.3,8.3 L148.2,8.3 L148.2,2.6 L151.4,2.6 L151.4,8.3 L156.9,8.3 L156.9,11 L156.9,11 Z" id="Shape" sketch:type="MSShapeGroup"></path>
            <path d="M179.5,20.3 L163.2,20.3 C163.3,21.9 163.6,23.3 164,24.3 C164.4,25.3 165,26.2 165.8,27 C166.9,28.1 168.3,28.7 170,28.7 C171.3,28.7 172.4,28.4 173.2,27.8 C174,27.2 174.7,26.2 175.3,24.8 L179,24.8 C178.6,26.2 178,27.3 177.2,28.2 C176.3,29.2 175.2,30 174,30.6 C172.8,31.2 171.5,31.4 170.1,31.4 C168.6,31.4 167.2,31.1 165.9,30.6 C164.6,30.1 163.5,29.2 162.6,28.2 C161.7,27.2 160.9,25.9 160.4,24.5 C159.9,23.1 159.6,21.5 159.6,19.8 C159.6,18.2 159.9,16.6 160.4,15.2 C160.9,13.8 161.6,12.5 162.5,11.4 C163.4,10.3 164.4,9.5 165.6,8.9 C166.8,8.3 168.1,8 169.5,8 C171.4,8 173.1,8.5 174.6,9.4 C176.1,10.4 177.3,11.8 178.1,13.6 C178.9,15.4 179.5,17.8 179.5,20.3 L179.5,20.3 Z M175.8,17.9 C175.7,16.5 175.4,15.4 175.1,14.5 C174.8,13.6 174.3,12.9 173.6,12.3 C172.6,11.4 171.4,10.9 169.9,10.9 C168.5,10.9 167.3,11.3 166.2,12.2 C165.1,13.1 164.3,14.2 163.8,15.7 C163.6,16.5 163.4,17.3 163.3,17.9 L175.8,17.9 L175.8,17.9 Z" id="Shape" sketch:type="MSShapeGroup"></path>
            <path d="M215.7,31 L193.5,31 L193.5,28.1 L197.1,28.1 L197.1,4.4 L193.6,4.4 L193.6,1.4 L215.3,1.4 L215.3,10 L211.9,10 L211.9,4.4 L200.8,4.4 L200.8,14.3 L211.8,14.3 L211.8,17.2 L200.8,17.2 L200.8,28.1 L212.4,28.1 L212.4,22 L215.7,22 L215.7,31 L215.7,31 Z" id="Shape" sketch:type="MSShapeGroup"></path>
            <path d="M239.2,31 L234.8,31 L229.1,22 L223.4,31 L219,31 L219,28.4 L221.6,28.4 L227.4,19.3 L222.2,11.1 L219.6,11.1 L219.6,8.4 L224.1,8.4 L229.2,16.5 L234.3,8.4 L238.7,8.4 L238.7,11.1 L236.2,11.1 L231,19.3 L236.8,28.4 L239.3,28.4 L239.3,31 L239.2,31 Z" id="Shape" sketch:type="MSShapeGroup"></path>
            <path d="M264.9,31 L258.4,31 L258.4,16.5 C258.4,12.8 257,10.9 254.2,10.9 C253.3,10.9 252.3,11.2 251.4,11.8 C250.5,12.4 249.6,13.2 248.9,14.1 C248.6,14.6 248.3,15 248.2,15.4 C248,15.8 247.9,16.4 247.8,17.1 C247.7,17.8 247.7,18.9 247.7,20.2 L247.7,28.3 L250.8,28.3 L250.8,30.9 L241.1,30.9 L241.1,28.3 L244.5,28.3 L244.5,2.7 L241.2,2.7 L241.2,0.1 L247.7,0.1 L247.7,12.9 C248.7,11.5 249.9,10.3 251.2,9.4 C252.6,8.5 254,8 255.4,8 C256.2,8 256.9,8.2 257.7,8.5 C258.5,8.8 259.1,9.3 259.6,9.8 C260.3,10.5 260.8,11.5 261.1,12.6 C261.4,13.8 261.6,15.3 261.6,17.2 L261.6,28.3 L264.9,28.3 L264.9,31 L264.9,31 Z" id="Shape" sketch:type="MSShapeGroup"></path>
            <path d="M276.3,31 L266.4,31 L266.4,28.4 L269.8,28.4 L269.8,11 L266.4,11 L266.4,8.3 L273,8.3 L273,28.3 L276.2,28.3 L276.2,31 L276.3,31 Z M272.8,5.1 L269,5.1 L269,1.3 L272.8,1.3 L272.8,5.1 L272.8,5.1 Z" id="Shape" sketch:type="MSShapeGroup"></path>
            <path d="M301.3,19.9 C301.3,21.9 300.9,23.8 300.1,25.5 C299.3,27.2 298.2,28.6 296.8,29.7 C295.4,30.7 293.9,31.2 292.3,31.2 C291.1,31.2 290,31 289.1,30.5 C288.2,30 287.5,29.5 286.9,28.9 C286.3,28.3 285.7,27.5 285,26.6 L285,30.8 L278.6,30.8 L278.6,28.2 L281.8,28.2 L281.8,2.6 L278.7,2.6 L278.7,-5.68434189e-14 L285,-5.68434189e-14 L285,13.1 C285.4,12.4 285.9,11.7 286.5,11 C287.2,10.2 288,9.6 289,9 C290,8.4 291.1,8.1 292.3,8.1 C293.5,8.1 294.7,8.4 295.8,9 C296.9,9.6 297.9,10.4 298.7,11.5 C299.5,12.6 300.1,13.8 300.6,15.3 C301,16.8 301.3,18.3 301.3,19.9 L301.3,19.9 Z M297.7,19.6 C297.7,18.3 297.5,17.1 297.2,16 C296.9,14.9 296.5,14 295.9,13.3 C295.4,12.5 294.7,12 293.9,11.5 C293.1,11 292.3,10.9 291.4,10.9 C290.4,10.9 289.3,11.2 288.3,11.9 C287.3,12.6 286.4,13.5 285.8,14.5 C285.2,15.6 284.8,16.6 284.8,17.7 L284.8,21.5 C284.8,22.7 285.1,23.9 285.7,25 C286.3,26.1 287.1,26.9 288.1,27.6 C289.1,28.3 290.2,28.6 291.3,28.6 C293.2,28.6 294.8,27.8 295.9,26.2 C297.2,24.5 297.7,22.3 297.7,19.6 L297.7,19.6 Z" id="Shape" sketch:type="MSShapeGroup"></path>
            <path d="M313.9,31 L304,31 L304,28.4 L307.4,28.4 L307.4,11 L304,11 L304,8.3 L310.6,8.3 L310.6,28.3 L313.8,28.3 L313.8,31 L313.9,31 Z M310.5,5.1 L306.7,5.1 L306.7,1.3 L310.5,1.3 L310.5,5.1 L310.5,5.1 Z" id="Shape" sketch:type="MSShapeGroup"></path>
            <path d="M326.9,11 L321.4,11 L321.4,25.8 C321.4,26.7 321.5,27.3 321.6,27.8 C321.8,28.2 322.1,28.5 322.5,28.7 C322.9,28.9 323.6,28.9 324.5,28.9 L325.5,28.9 L326.7,28.9 L326.7,31.4 C325.5,31.5 324.2,31.5 322.8,31.5 C321.6,31.5 320.7,31.4 320,31.1 C319.3,30.8 318.8,30.4 318.6,29.7 C318.3,29 318.2,28.1 318.2,26.9 L318.2,11 L314.3,11 L314.3,8.3 L318.2,8.3 L318.2,2.6 L321.4,2.6 L321.4,8.3 L326.9,8.3 L326.9,11 L326.9,11 Z" id="Shape" sketch:type="MSShapeGroup"></path>
            <path d="M338.4,31 L328.5,31 L328.5,28.4 L331.9,28.4 L331.9,11 L328.5,11 L328.5,8.3 L335.1,8.3 L335.1,28.3 L338.3,28.3 L338.3,31 L338.4,31 Z M335,5.1 L331.2,5.1 L331.2,1.3 L335,1.3 L335,5.1 L335,5.1 Z" id="Shape" sketch:type="MSShapeGroup"></path>
            <path d="M361.8,19.7 C361.8,22 361.4,24.1 360.5,25.9 C359.6,27.7 358.4,29.1 356.8,30.1 C355.2,31.1 353.4,31.6 351.4,31.6 C349.9,31.6 348.5,31.3 347.2,30.7 C345.9,30.1 344.8,29.3 343.9,28.3 C343,27.3 342.3,26 341.8,24.5 C341.3,23 341.1,21.4 341.1,19.7 C341.1,17.4 341.5,15.4 342.4,13.7 C343.3,11.9 344.5,10.6 346.1,9.6 C347.7,8.6 349.5,8.1 351.5,8.1 C353,8.1 354.4,8.4 355.6,9 C356.8,9.6 358,10.4 358.9,11.4 C359.8,12.4 360.6,13.7 361.1,15.1 C361.6,16.4 361.8,18 361.8,19.7 L361.8,19.7 Z M358.2,19.6 C358.2,17.8 357.9,16.3 357.4,15 C356.9,13.7 356,12.7 355,12 C354,11.3 352.8,10.9 351.4,10.9 C350,10.9 348.9,11.3 347.9,12 C346.9,12.7 346.2,13.8 345.6,15.1 C345,16.4 344.8,18 344.8,19.8 C344.8,22.6 345.4,24.8 346.5,26.4 C347.6,28 349.3,28.8 351.4,28.8 C352.8,28.8 354,28.4 355.1,27.7 C356.1,27 356.9,25.9 357.5,24.5 C358.1,23.1 358.2,21.4 358.2,19.6 L358.2,19.6 Z" id="Shape" sketch:type="MSShapeGroup"></path>
            <path d="M388.2,31 L381.7,31 L381.7,16 C381.7,14.9 381.5,14 381.2,13.2 C380.9,12.4 380.3,11.8 379.7,11.4 C379.1,11 378.3,10.8 377.4,10.8 C376.3,10.8 375.3,11.1 374.3,11.8 C373.3,12.5 372.5,13.4 371.9,14.4 C371.3,15.5 371,16.6 371,17.8 L371,28.3 L374.2,28.3 L374.2,30.9 L364.6,30.9 L364.6,28.3 L367.8,28.3 L367.8,11 L364.6,11 L364.6,8.3 L371,8.3 L371,12.5 C371.9,11.3 372.9,10.2 374,9.3 C375.1,8.4 376.6,7.9 378.5,7.9 C379.5,7.9 380.4,8.1 381.2,8.5 C382,8.9 382.7,9.4 383.3,10.1 C383.9,10.8 384.3,11.6 384.6,12.6 C384.9,13.6 385.1,14.7 385.1,16 L385.1,28.3 L388.3,28.3 L388.3,31 L388.2,31 Z" id="Shape" sketch:type="MSShapeGroup"></path>
        </g>
        <g id="Group" sketch:type="MSLayerGroup" transform="translate(1850.000000, 290.000000)" fill="#222222">
            <path d="M21.2,31 L0.5,31 L0.5,26.2 L12.1,14.7 C13.2,13.6 14,12.8 14.4,12.1 C14.8,11.4 15,10.7 15,9.9 C15,9.1 14.8,8.5 14.5,7.9 C14.1,7.3 13.6,6.8 13,6.5 C12.4,6.2 11.6,6 10.9,6 C7.9,6 6.3,8 6.1,11.9 L0.1,11.9 C0.1,11.1 0.2,10.4 0.2,9.8 C0.3,9.2 0.3,8.7 0.5,8.3 C0.6,7.9 0.8,7.4 1,6.8 C1.7,5.2 2.9,3.7 4.6,2.5 C6.3,1.3 8.3,0.7 10.7,0.7 C12.2,0.7 13.6,0.9 14.8,1.3 C16.1,1.7 17.2,2.3 18.1,3.1 C19,3.9 19.8,4.8 20.3,5.9 C20.8,7 21.1,8.1 21.1,9.4 C21.1,10.9 20.7,12.3 19.9,13.6 C19.1,14.9 17.7,16.5 15.5,18.4 L6.9,26.3 L15.9,26.3 L15.9,23.7 L21.1,23.7 L21.1,31 L21.2,31 Z" id="Shape" sketch:type="MSShapeGroup"></path>
            <path d="M48,21 C48,22.5 47.7,23.9 47.2,25.2 C46.7,26.5 45.9,27.6 44.9,28.6 C43.9,29.6 42.8,30.3 41.5,30.8 C40.2,31.3 38.7,31.6 37.2,31.6 C35.5,31.6 34,31.3 32.5,30.6 C31.1,29.9 29.9,28.9 28.9,27.7 C27.9,26.4 27.1,24.9 26.6,23.1 C26,21.3 25.8,19.3 25.8,17.2 C25.8,14.6 26.1,12.3 26.6,10.3 C27.1,8.3 27.9,6.6 28.9,5.2 C29.9,3.8 31.2,2.7 32.7,2 C34.2,1.3 35.9,0.9 37.8,0.9 C38.7,0.9 39.6,1 40.4,1.2 C41.3,1.4 42.1,1.8 42.9,2.2 C43.7,2.6 44.4,3.1 45.1,3.7 C45.9,4.5 46.6,5.2 47,6.1 C47.4,6.9 47.7,7.9 47.8,9 L41.8,9 C41.4,8 40.9,7.2 40.3,6.7 C39.7,6.2 38.8,6 37.8,6 C37.1,6 36.4,6.2 35.8,6.5 C35.2,6.8 34.6,7.3 34.1,7.8 C33.6,8.4 33.2,9.1 32.9,9.9 C32.7,10.3 32.6,10.6 32.5,11 C32.4,11.4 32.3,11.8 32.3,12.4 C32.3,13 32.2,13.5 32.2,14.2 C34.1,12 36.2,10.9 38.7,10.9 C40.5,10.9 42.1,11.3 43.6,12.2 C45,13.1 46.2,14.3 47,15.9 C47.6,17.2 48,19 48,21 L48,21 Z M41.9,20.8 C41.9,19.8 41.7,18.9 41.3,18.1 C40.9,17.3 40.3,16.7 39.6,16.3 C38.9,15.9 38.1,15.6 37.1,15.6 C36.3,15.6 35.5,15.8 34.7,16.3 C34,16.8 33.4,17.4 32.9,18.2 C32.5,19 32.3,19.9 32.3,20.8 C32.3,21.8 32.5,22.7 32.9,23.6 C33.3,24.4 33.9,25.1 34.6,25.6 C35.3,26.1 36.1,26.3 37,26.3 C38.4,26.3 39.6,25.8 40.4,24.8 C41.2,23.8 41.9,22.4 41.9,20.8 L41.9,20.8 Z" id="Shape" sketch:type="MSShapeGroup"></path>
            <path d="M76.3,6.2 L74,6.2 L74,25.7 C74,27.2 73.8,28.4 73.4,29.2 C73,30 72.4,30.6 71.6,31 C70.8,31.4 69.5,31.5 68,31.5 C67.5,31.5 65.8,31.4 62.8,31.1 L62.8,26.2 L65.5,26.2 C66.4,26.2 67,26 67.4,25.5 C67.8,25 68,24.2 68,23.2 L68,6.3 L65.6,6.3 L65.6,1.5 L76.4,1.5 L76.4,6.2 L76.3,6.2 Z" id="Shape" sketch:type="MSShapeGroup"></path>
            <path d="M102.2,31 L94.8,31 L94.8,28.3 C93.8,29.1 93,29.7 92.4,30.1 C91.8,30.5 91.1,30.9 90.2,31.1 C89.4,31.4 88.4,31.5 87.4,31.5 C86,31.5 84.8,31.2 83.8,30.6 C82.8,30 82,29.2 81.5,28.1 C81,27 80.7,25.7 80.7,24.2 L80.7,12.9 L78.5,12.9 L78.5,8.5 L86.2,8.5 L86.2,23 C86.2,24.3 86.5,25.3 87,25.9 C87.5,26.5 88.3,26.9 89.4,26.9 C90.3,26.9 91.1,26.6 91.9,26.1 C92.7,25.5 93.3,24.8 93.8,23.9 C94.3,23 94.5,22 94.5,21 L94.5,12.8 L92.3,12.8 L92.3,8.4 L100,8.4 L100,26.5 L102.1,26.5 L102.1,31 L102.2,31 Z" id="Shape" sketch:type="MSShapeGroup"></path>
            <path d="M128.2,31 L120.7,31 L120.7,16 C120.7,14.9 120.4,14.1 119.8,13.5 C119.2,12.9 118.4,12.6 117.3,12.6 C116.4,12.6 115.6,12.9 114.8,13.4 C114,13.9 113.4,14.6 112.9,15.5 C112.4,16.4 112.2,17.3 112.2,18.3 L112.2,26.6 L114.3,26.6 L114.3,31 L104.6,31 L104.6,26.6 L106.7,26.6 L106.7,12.9 L104.6,12.9 L104.6,8.5 L112.2,8.5 L112.2,11.4 C113.1,10.4 114.1,9.6 115.1,8.9 C116.1,8.2 117.5,7.9 119.1,7.9 C120.4,7.9 121.6,8.2 122.7,8.8 C123.8,9.4 124.6,10.2 125.2,11.2 C125.8,12.2 126.1,13.4 126.1,14.6 L126.1,26.6 L128.2,26.6 L128.2,31 L128.2,31 Z" id="Shape" sketch:type="MSShapeGroup"></path>
            <path d="M152.2,20.8 L136,20.8 C136.2,23.3 136.9,24.9 138.1,25.7 C139.3,26.5 140.4,26.9 141.4,26.9 C143.6,26.9 145.1,25.8 146,23.6 L151.8,23.6 C151.5,25.2 150.8,26.6 149.8,27.8 C148.8,29 147.6,29.9 146.1,30.5 C144.6,31.1 143,31.5 141.2,31.5 C139.7,31.5 138.2,31.2 136.9,30.6 C135.6,30 134.4,29.2 133.4,28.1 C132.4,27 131.7,25.8 131.1,24.3 C130.6,22.9 130.3,21.3 130.3,19.6 C130.3,17.9 130.6,16.3 131.1,14.9 C131.7,13.5 132.4,12.2 133.4,11.1 C134.4,10 135.5,9.2 136.9,8.6 C138.3,8 139.7,7.7 141.2,7.7 C143,7.7 144.6,8.1 146.1,8.9 C147.6,9.7 148.8,10.8 149.8,12.3 C150.7,13.7 151.3,15 151.5,16.3 C151.7,17.6 152.1,19.2 152.2,20.8 L152.2,20.8 Z M146.1,17 C145.9,15.6 145.4,14.5 144.6,13.7 C143.8,12.9 142.7,12.6 141.4,12.6 C140.6,12.6 139.9,12.8 139.2,13.1 C138.5,13.4 137.9,14 137.5,14.6 C137.1,15.2 136.7,16 136.4,17 L146.1,17 L146.1,17 Z" id="Shape" sketch:type="MSShapeGroup"></path>
            <path d="M186.5,22.4 L165.1,22.4 L165.1,18.7 L186.5,18.7 L186.5,22.4 L186.5,22.4 Z" id="Shape" sketch:type="MSShapeGroup"></path>
            <path d="M222.2,20.9 C222.2,22.9 221.7,24.7 220.7,26.3 C219.7,28 218.4,29.3 216.7,30.2 C215,31.2 213.2,31.6 211.2,31.6 C209.5,31.6 208,31.4 206.6,30.9 C205.2,30.4 204.1,29.7 203.1,28.8 C202.1,27.9 201.3,26.8 200.7,25.4 C200.1,24.1 199.7,22.5 199.5,20.8 L205.4,20.8 C205.7,22.5 206.3,23.9 207.2,24.9 C208.1,25.9 209.3,26.4 210.8,26.4 C211.8,26.4 212.7,26.2 213.5,25.7 C214.3,25.2 214.9,24.6 215.4,23.8 C215.9,23 216.1,22.2 216.1,21.3 C216.1,19.9 215.7,18.8 214.8,17.9 C213.9,17 212.9,16.5 211.7,16.5 C211.1,16.5 210.3,16.7 209.3,17.1 L206.3,13.7 L214.9,6.2 L205.7,6.2 L205.7,9 L200.5,9 L200.5,1.3 L221.6,1.3 L221.6,6.8 L215.1,12.5 C216.5,12.6 217.7,13 218.8,13.8 C219.9,14.6 220.7,15.6 221.3,16.9 C221.9,18.2 222.2,19.5 222.2,20.9 L222.2,20.9 Z" id="Shape" sketch:type="MSShapeGroup"></path>
            <path d="M250.3,6.2 L248,6.2 L248,25.7 C248,27.2 247.8,28.4 247.4,29.2 C247,30 246.4,30.6 245.6,31 C244.8,31.4 243.5,31.5 242,31.5 C241.5,31.5 239.8,31.4 236.8,31.1 L236.8,26.2 L239.5,26.2 C240.4,26.2 241,26 241.4,25.5 C241.8,25 242,24.2 242,23.2 L242,6.3 L239.6,6.3 L239.6,1.5 L250.4,1.5 L250.4,6.2 L250.3,6.2 Z" id="Shape" sketch:type="MSShapeGroup"></path>
            <path d="M276.2,31 L268.8,31 L268.8,28.3 C267.8,29.1 267,29.7 266.4,30.1 C265.8,30.5 265.1,30.9 264.2,31.1 C263.4,31.4 262.4,31.5 261.4,31.5 C260,31.5 258.8,31.2 257.8,30.6 C256.8,30 256,29.2 255.5,28.1 C255,27 254.7,25.7 254.7,24.2 L254.7,12.9 L252.5,12.9 L252.5,8.5 L260.2,8.5 L260.2,23 C260.2,24.3 260.5,25.3 261,25.9 C261.5,26.5 262.3,26.9 263.4,26.9 C264.3,26.9 265.1,26.6 265.9,26.1 C266.7,25.5 267.3,24.8 267.8,23.9 C268.3,23 268.5,22 268.5,21 L268.5,12.8 L266.3,12.8 L266.3,8.4 L274,8.4 L274,26.5 L276.1,26.5 L276.1,31 L276.2,31 Z" id="Shape" sketch:type="MSShapeGroup"></path>
            <path d="M288.6,31 L278.8,31 L278.8,26.6 L281,26.6 L281,4.3 L278.8,4.3 L278.8,0 L286.5,0 L286.5,26.6 L288.7,26.6 L288.7,31 L288.6,31 Z" id="Shape" sketch:type="MSShapeGroup"></path>
            <path d="M313.1,12.9 L311.2,12.9 L303.3,36.3 C303.1,37 302.8,37.5 302.4,37.9 C302,38.3 301.4,38.5 300.7,38.7 C300,38.9 299,38.9 297.8,38.9 C296.3,38.9 295.1,38.8 294.3,38.7 L294.3,34.2 L297.3,34.2 C297.7,34.2 298,34.1 298.3,34 C298.5,33.9 298.7,33.6 298.9,33.3 C299.1,33 299.3,32.4 299.5,31.7 L299.7,31.1 L292.6,12.8 L290.7,12.8 L290.7,8.4 L300.1,8.4 L300.1,12.8 L298.1,12.8 L302.2,24.2 L305.8,12.8 L303.9,12.8 L303.9,8.4 L313.2,8.4 L313.2,12.9 L313.1,12.9 Z" id="Shape" sketch:type="MSShapeGroup"></path>
        </g>
    </g>
</svg>