<?xml version="1.0" encoding="utf-8"?>
<!-- Generator: Adobe Illustrator 15.0.2, SVG Export Plug-In . SVG Version: 6.00 Build 0)  -->
<!DOCTYPE svg PUBLIC "-//W3C//DTD SVG 1.1//EN" "http://www.w3.org/Graphics/SVG/1.1/DTD/svg11.dtd">
<svg version="1.1" id="Layer_1" xmlns="http://www.w3.org/2000/svg" xmlns:xlink="http://www.w3.org/1999/xlink" x="0px" y="0px"
	 width="1681px" height="341px" viewBox="0 0 1681 341" enable-background="new 0 0 1681 341" xml:space="preserve">
<path d="M835.67,169.77c-0.111-87.592-63.225-158.561-150.845-158.561c-87.618,0-150.732,70.969-150.843,158.561h-0.003
	c0,0.041,0,0.076,0,0.112c0,0.038,0,0.079,0,0.113h0.003c0.111,87.592,63.225,158.562,150.843,158.562
	c87.62,0,150.733-70.97,150.845-158.562h0.003c0-0.034,0-0.075,0-0.113c0-0.036,0-0.071,0-0.112H835.67z M684.825,274.37
	c-55.843,0-92.519-43.337-92.565-104.487c0.047-61.146,36.723-104.485,92.565-104.485c55.844,0,92.52,43.339,92.567,104.485
	C777.345,231.033,740.669,274.37,684.825,274.37z"/>
<polygon points="316.612,16.525 316.612,148.882 340.609,148.882 340.609,198.939 316.612,198.939 316.612,323.011 260.431,323.011 
	260.431,16.525 "/>
<g>
	<polygon points="437.334,198.939 458.034,198.939 458.034,323.011 514.216,323.011 514.216,16.525 458.034,16.525 458.034,148.882 
		437.667,148.882 434.034,148.882 410.036,148.882 410.036,16.525 353.855,16.525 353.855,323.011 410.036,323.011 410.036,198.939 
		434.034,198.939 	"/>
</g>
<polygon points="951.888,180.597 954.188,142.668 954.188,16.525 931.053,16.525 910.731,182.447 908.147,221.698 905.803,181.791 
	887.151,16.525 833.02,16.525 881.915,323.011 933.922,323.011 951.896,180.597 "/>
<polygon points="1149.765,16.525 1131.113,181.791 1128.768,221.698 1126.188,182.447 1105.864,16.525 1082.731,16.525 
	1059.597,16.525 1039.272,182.447 1036.691,221.698 1034.347,181.791 1015.693,16.525 961.563,16.525 1010.459,323.011 
	1062.466,323.011 1080.438,180.597 1080.433,180.597 1082.731,142.668 1085.028,180.597 1085.021,180.597 1102.994,323.011 
	1155.004,323.011 1203.898,16.525 "/>
<path d="M90.116,213.188v-90.35c-0.164-0.223-0.337-0.451-0.5-0.671c-9.793-13.318-15.659-25.321-15.659-38.97
	c0-11.422,4.603-21.942,16.159-23.485V11.067c-44.183,1.344-73.228,32.677-73.228,72.18c0,44.329,30.888,80.228,53.897,105.996
	C77.869,198.06,84.457,205.797,90.116,213.188"/>
<path d="M90.116,281.292c-0.816,0.082-1.657,0.126-2.532,0.126c-12.423,0-20.992-8.68-20.992-24.961v-32.018l-51.083,7.095v25.21
	c0,44.637,23.156,72.244,72.561,72.244c0.079,0,0.153,0.003,0.23,0.003c0.609,0,1.21-0.026,1.816-0.038V281.292z"/>
<path d="M247.489,254.799c0-41.86-28.396-74.388-53.244-104.298c-7.961-10.56-15.29-19.464-21.362-27.663v0.137
	c-0.164-0.22-0.337-0.448-0.497-0.669c-9.796-13.316-15.661-25.319-15.661-38.968c0-11.423,4.602-21.942,16.159-23.485v-0.138
	c0.956-0.127,1.938-0.214,2.989-0.214c10.601,0,17.311,9.754,17.311,26.418v23.563l51.081-5.579v-21.11
	c0-43.26-31.082-71.791-68.392-71.791c-1.006,0-1.995,0.035-2.989,0.067v0.139C128.7,12.552,99.657,43.885,99.657,83.391
	c0,44.326,30.887,80.224,53.896,105.993c7.083,8.817,13.671,16.557,19.331,23.943v-0.137c0.224,0.287,0.469,0.59,0.688,0.881
	c10.521,13.864,17.216,26.837,17.216,42.849c0,12.677-5.503,23.134-17.906,24.372v0.141c-0.815,0.082-1.657,0.126-2.532,0.126
	c-12.423,0-20.99-8.68-20.99-24.958v-32.021l-51.084,7.096v25.21c0,44.64,23.156,72.244,72.562,72.244
	c0.077,0,0.151,0.003,0.229,0.003c0.61,0,1.211-0.026,1.817-0.038v-0.141C216.546,328.091,247.489,296.495,247.489,254.799z"/>
<polygon points="1227.006,16.525 1227.006,111.412 1239.618,177.078 1252.362,177.078 1264.972,111.412 1264.972,16.525 "/>
<rect x="1228.965" y="197.437" width="33.72" height="39.319"/>
<g>
	<path d="M1335.049,32.048c0,5.916-2.809,9.558-7.288,13.204l-11.289,9.078h18.398v6.99h-28.735v-7.587l16.073-13.084
		c4.182-3.464,4.776-5.852,4.776-8.48c0-3.464-2.747-5.914-6.451-5.914s-7.468,1.55-7.11,8.004h-8.003
		c-0.123-8.902,4.718-14.996,15.295-14.996C1329.315,19.264,1335.049,24.582,1335.049,32.048z"/>
	<path d="M1341.731,19.861h26.407v7.108h-19.774l-0.539,9.023c1.136-1.257,4.123-2.99,8.425-2.99
		c8.721,0,13.859,5.795,13.859,13.623c0,8.899-5.2,15.292-15.892,15.292c-11.708,0-14.756-8.302-14.876-12.425h8.305
		c0.299,2.626,2.328,5.736,6.809,5.736c4.898,0,7.59-3.23,7.59-8.006c0-4.483-2.51-7.589-7.169-7.589
		c-4.541,0-6.334,2.867-6.931,4.363l-7.529-0.239L1341.731,19.861z"/>
	<path d="M1402.833,51.104c0,8.125-3.766,10.335-9.977,10.335c-3.165,0-5.971-0.24-6.63-0.417v-6.992c0,0,2.39,0.299,4.899,0.299
		c2.688,0,3.464-0.656,3.464-3.164V19.503h8.243V51.104z"/>
	<path d="M1429.709,61.32v-3.105c-1.194,1.255-4.12,3.523-9.376,3.523c-7.289,0-11.116-5.135-11.116-11.17V28.584h8.067v20.429
		c0,4.182,2.152,6.154,5.617,6.154c4.539,0,6.633-3.227,6.633-7.289V28.584h8.062V61.32H1429.709z"/>
	<path d="M1463.948,61.32V41.009c0-3.883-2.152-5.974-5.675-5.974c-3.944,0-7.051,2.569-7.051,7.824v18.46h-8.065V28.584h7.948
		v3.464c1.848-2.211,5.136-3.883,9.317-3.883c7.289,0,11.591,4.123,11.591,10.751V61.32H1463.948z"/>
	<path d="M1476.903,45.132c0-11.112,6.929-16.967,15.893-16.967c9.859,0,15.054,7.229,15.054,16.905c0,0.358,0,1.732,0,1.732
		h-22.583c0,3.703,1.494,8.245,7.409,8.245c3.224,0,5.854-1.613,6.509-4.66l8.188,0.18c-1.017,6.513-5.916,11.17-14.577,11.17
		C1483.656,61.737,1476.903,56.242,1476.903,45.132z M1499.306,41.009c-0.237-4.48-3.283-6.212-6.571-6.212
		c-3.763,0-6.75,2.33-7.166,6.212H1499.306z"/>
	<path d="M1306.255,106.708v-6.928h48.209v6.928H1306.255z"/>
	<path d="M1375.059,79.588h26.404v7.107h-19.774l-0.536,9.024c1.136-1.258,4.123-2.99,8.422-2.99
		c8.724,0,13.859,5.795,13.859,13.622c0,8.899-5.197,15.292-15.889,15.292c-11.711,0-14.759-8.302-14.873-12.425h8.299
		c0.302,2.627,2.334,5.736,6.812,5.736c4.898,0,7.59-3.229,7.59-8.006c0-4.483-2.513-7.587-7.169-7.587
		c-4.544,0-6.333,2.866-6.931,4.361l-7.529-0.238L1375.059,79.588z"/>
	<path d="M1436.16,110.831c0,8.124-3.763,10.335-9.977,10.335c-3.165,0-5.971-0.24-6.63-0.415v-6.992c0,0,2.39,0.298,4.899,0.298
		c2.688,0,3.464-0.656,3.464-3.164V79.229h8.243V110.831z"/>
	<path d="M1462.039,121.045v-3.105c-1.197,1.255-4.123,3.524-9.379,3.524c-7.289,0-11.116-5.136-11.116-11.171V88.31h8.067v20.43
		c0,4.183,2.152,6.153,5.617,6.153c4.538,0,6.632-3.227,6.632-7.288V88.31h8.065v32.735H1462.039z"/>
	<path d="M1476.485,121.045V76.84h8.064v44.206H1476.485z"/>
	<path d="M1490.761,125.467h4.837c1.733,0,2.691-0.478,3.166-2.272l0.601-2.149l-11.233-32.735h8.899l6.813,22.759l6.809-22.759
		h8.425l-12.305,36.501c-1.675,5.017-3.704,7.705-9.263,7.705h-6.749V125.467z"/>
	<path d="M1563.988,91.774c0,5.916-2.805,9.558-7.285,13.204l-11.292,9.078h18.398v6.989h-28.732v-7.587l16.068-13.084
		c4.182-3.464,4.778-5.852,4.778-8.48c0-3.464-2.747-5.914-6.451-5.914s-7.467,1.551-7.106,8.004h-8.006
		c-0.12-8.902,4.717-14.996,15.291-14.996C1558.255,78.989,1563.988,84.307,1563.988,91.774z"/>
	<path d="M1568.281,100.375c0-17.681,8.785-21.385,15.477-21.385c6.688,0,15.473,3.705,15.473,21.385
		c0,17.685-8.784,21.327-15.473,21.327C1577.066,121.702,1568.281,118.059,1568.281,100.375z M1576.647,100.375
		c0,12.308,3.643,14.46,7.11,14.46c3.464,0,7.109-2.152,7.109-14.46c0-12.245-3.646-14.513-7.109-14.513
		C1580.29,85.862,1576.647,88.13,1576.647,100.375z"/>
	<path d="M1618.754,121.045h-8.425V91.057h-6.328v-7.11h3.342c2.573,0,4.125-0.597,4.304-4.24h7.107V121.045z"/>
	<path d="M1627.114,79.588h26.401v7.107h-19.774l-0.536,9.024c1.136-1.258,4.123-2.99,8.422-2.99
		c8.724,0,13.862,5.795,13.862,13.622c0,8.899-5.2,15.292-15.892,15.292c-11.71,0-14.756-8.302-14.873-12.425h8.299
		c0.302,2.627,2.334,5.736,6.814,5.736c4.899,0,7.587-3.229,7.587-8.006c0-4.483-2.51-7.587-7.168-7.587
		c-4.542,0-6.334,2.866-6.932,4.361l-7.528-0.238L1627.114,79.588z"/>
</g>
</svg>
