<?xml version="1.0" encoding="UTF-8" standalone="no"?>
<!-- Created with Inkscape (http://www.inkscape.org/) -->

<svg
   xmlns:dc="http://purl.org/dc/elements/1.1/"
   xmlns:cc="http://creativecommons.org/ns#"
   xmlns:rdf="http://www.w3.org/1999/02/22-rdf-syntax-ns#"
   xmlns:svg="http://www.w3.org/2000/svg"
   xmlns="http://www.w3.org/2000/svg"
   xmlns:sodipodi="http://sodipodi.sourceforge.net/DTD/sodipodi-0.dtd"
   xmlns:inkscape="http://www.inkscape.org/namespaces/inkscape"
   id="svg4272"
   version="1.1"
   inkscape:version="0.91 r13725"
   xml:space="preserve"
   width="1681"
   height="280"
   viewBox="0 0 1681 280"
   sodipodi:docname="logo-2016-1.svg"><metadata
     id="metadata4278"><rdf:RDF><cc:Work
         rdf:about=""><dc:format>image/svg+xml</dc:format><dc:type
           rdf:resource="http://purl.org/dc/dcmitype/StillImage" /><dc:title /></cc:Work></rdf:RDF></metadata><defs
     id="defs4276"><clipPath
       clipPathUnits="userSpaceOnUse"
       id="clipPath4288"><path
         d="m 145.1091,346.0004 0,-41.0046 16.9752,0 0,-304.466318 43.3986,0 0,345.470918 -60.3738,0 z"
         id="path4290"
         inkscape:connector-curvature="0"
         style="clip-rule:evenodd" /></clipPath><clipPath
       clipPathUnits="userSpaceOnUse"
       id="clipPath4298"><path
         d="m 239.4129,345.9987 -21.6908,-21.6831 0,-302.1104 21.6908,-21.6736398 55.6619,0 21.6984,21.6736398 0,160.2455 -21.6984,21.6812 -33.9617,0 0,100.8641 12.2634,0 0,-66.931 43.3967,0 0,86.2506 -21.6984,21.6831 -55.6619,0 z m 21.7002,-304.47199 12.2634,0 0,121.60249 -12.2634,0 0,-121.60249 z"
         id="path4300"
         inkscape:connector-curvature="0"
         style="clip-rule:evenodd" /></clipPath><clipPath
       clipPathUnits="userSpaceOnUse"
       id="clipPath4308"><path
         d="m 353.4969,346.0004 0,-51.5448 16.9752,0 0,-293.926118 64.282,0 0,345.470918 -81.2572,0 z"
         id="path4310"
         inkscape:connector-curvature="0"
         style="clip-rule:evenodd" /></clipPath><clipPath
       clipPathUnits="userSpaceOnUse"
       id="clipPath4318"><path
         d="m 468.716,345.9987 -21.721,-21.6831 0,-302.1104 21.721,-21.6736398 97.5706,0 21.6983,21.6736398 0,160.2455 -21.6983,21.6812 -54.8073,0 0,90.3258 12.2634,0 0,-56.3927 64.2422,0 0,86.2506 -21.6983,21.6831 -97.5706,0 z m 42.7633,-293.95257 12.2634,0 0,100.96417 -12.2634,0 0,-100.96417 z"
         id="path4320"
         inkscape:connector-curvature="0"
         style="clip-rule:evenodd" /></clipPath><clipPath
       clipPathUnits="userSpaceOnUse"
       id="clipPath4328"><path
         d="m 0,346.0004 0,-28.3579 16.97899,0 0,-317.1073502 22.30336,0 0,345.4652502 -39.28235,0 z"
         id="path4330"
         inkscape:connector-curvature="0"
         style="clip-rule:evenodd" /></clipPath><clipPath
       clipPathUnits="userSpaceOnUse"
       id="clipPath4338"><path
         d="m 73.21311,345.9987 -21.69076,-21.6831 0,-302.1104 21.69076,-21.6717506 13.47353,0 21.70016,21.6717506 0,160.2474 -21.70016,21.6793 -12.86849,0 0,113.5089 12.26534,0 0,-79.572 22.30331,0 0,86.2468 -21.70016,21.6831 -13.47353,0 z m 0.60504,-314.7836 12.26345,0 0,143.6691 -12.26345,0 0,-143.6691 z"
         id="path4340"
         inkscape:connector-curvature="0"
         style="clip-rule:evenodd" /></clipPath><clipPath
       clipPathUnits="userSpaceOnUse"
       id="clipPath4348"><path
         d="m 624.7074,346.0004 0,-62.0813 16.9752,0 0,-283.3839502 87.8672,0 0,345.4652502 -104.8424,0 z"
         id="path4350"
         inkscape:connector-curvature="0"
         style="clip-rule:evenodd" /></clipPath><clipPath
       clipPathUnits="userSpaceOnUse"
       id="clipPath4358"><path
         d="m 763.5118,345.9987 -21.7229,-21.6831 0,-302.10473 21.7229,-21.6774206 147.2634,0 21.6984,21.6774206 0,160.24173 -21.6984,21.6793 -78.3907,0 0,79.7874 12.2634,0 0,-45.8505 87.8257,0 0,86.2468 -21.6984,21.6831 -147.2634,0 z m 68.8727,-283.64096 12.2634,0 0,79.90836 -12.2634,0 0,-79.90836 z"
         id="path4360"
         inkscape:connector-curvature="0"
         style="clip-rule:evenodd" /></clipPath><clipPath
       clipPathUnits="userSpaceOnUse"
       id="clipPath4368"><path
         d="m 969.1956,346.0004 0,-73.4641 16.9752,0 0,-272.0011502 107.8672,0 0,345.4652502 -124.8424,0 z"
         id="path4370"
         inkscape:connector-curvature="0"
         style="clip-rule:evenodd" /></clipPath><clipPath
       clipPathUnits="userSpaceOnUse"
       id="clipPath4378"><path
         d="m 1128,345.9987 -21.721,-21.6831 0,-302.10473 21.721,-21.6774206 188.956,0 21.697,21.6774206 0,160.24173 -21.697,21.6793 -98.396,0 0,68.4065 12.263,0 0,-34.4696 107.83,0 0,86.2468 -21.697,21.6831 -188.956,0 z m 90.56,-272.69834 12.263,0 0,58.42924 -12.263,0 0,-58.42924 z"
         id="path4380"
         inkscape:connector-curvature="0"
         style="clip-rule:evenodd" /></clipPath><clipPath
       clipPathUnits="userSpaceOnUse"
       id="clipPath4388"><path
         d="m 1375.375,346.0004 0,-81.8902 16.977,0 0,-263.5750502 124.714,0 0,345.4652502 -141.691,0 z"
         id="path4390"
         inkscape:connector-curvature="0"
         style="clip-rule:evenodd" /></clipPath><clipPath
       clipPathUnits="userSpaceOnUse"
       id="clipPath4398"><path
         d="m 1551.026,345.9987 -21.723,-21.6831 0,-302.10473 21.723,-21.6774206 227.278,0 21.697,21.6774206 0,160.24173 -21.697,21.6793 -115.24,0 0,59.9785 12.262,0 0,-26.0416 124.675,0 0,86.2468 -21.697,21.6831 -227.278,0 z m 112.038,-262.17703 12.262,0 0,37.36773 -12.262,0 0,-37.36773 z"
         id="path4400"
         inkscape:connector-curvature="0"
         style="clip-rule:evenodd" /></clipPath></defs><sodipodi:namedview
     pagecolor="#ffffff"
     bordercolor="#666666"
     borderopacity="1"
     objecttolerance="10"
     gridtolerance="10"
     guidetolerance="10"
     inkscape:pageopacity="0"
     inkscape:pageshadow="2"
     inkscape:window-width="3840"
     inkscape:window-height="2075"
     id="namedview4274"
     showgrid="false"
     inkscape:zoom="1.769887"
     inkscape:cx="711.62246"
     inkscape:cy="154.80377"
     inkscape:window-x="1920"
     inkscape:window-y="0"
     inkscape:window-maximized="1"
     inkscape:current-layer="g4280" /><g
     id="g4280"
     inkscape:groupmode="layer"
     inkscape:label="SHOW_home_header"
     transform="matrix(1.25,0,0,-1.25,0,280)"><g
       id="g4282" /><g
       id="g4324"
       transform="matrix(0.59032267,0,0,0.59032267,4.3331873,9.7177774)"><g
         id="g4326"
         clip-path="url(#clipPath4328)"><path
           d="m -5,351.0004 49.28235,0 0,-355.46525 -49.28235,0 0,355.46525 z"
           style="fill:#1a1a1a;fill-opacity:1;fill-rule:nonzero;stroke:none"
           id="path4332"
           inkscape:connector-curvature="0" /></g></g><g
       id="g4334"
       transform="matrix(0.59032267,0,0,0.59032267,4.3331873,9.7177774)"><g
         id="g4336"
         clip-path="url(#clipPath4338)"><path
           d="m 46.52235,350.9987 66.86445,0 0,-355.465251 -66.86445,0 0,355.465251 z"
           style="fill:#1a1a1a;fill-opacity:1;fill-rule:nonzero;stroke:none"
           id="path4342"
           inkscape:connector-curvature="0" /></g></g><g
       id="g4404"
       transform="matrix(0.59032267,0,0,0.59032267,4.3331873,9.7177774)"><g
         id="g4406"
         transform="matrix(1,0,0,-1,1848,164)"><g
           transform="translate(0,43)"
           style="font-variant:normal;font-weight:bold;font-size:42px;font-family:Calvert;-inkscape-font-specification:Calvert-Bold;writing-mode:lr-tb;fill:#222222;fill-opacity:1;fill-rule:nonzero;stroke:none"
           id="text4408"><path
             d="m 25.163086,-29.654297 0,6.480469 q -2.522461,-1.12793 -4.921875,-1.702149 -2.399414,-0.574218 -4.532227,-0.574218 -2.830078,0 -4.183593,0.779297 -1.353516,0.779296 -1.353516,2.419921 0,1.230469 0.902344,1.927735 0.922851,0.676758 3.322265,1.168945 l 3.363282,0.676758 q 5.106445,1.025391 7.259765,3.117187 2.153321,2.091797 2.153321,5.9472661 0,5.0654297 -3.014649,7.546875 -2.994141,2.46093746 -9.166992,2.46093746 -2.912109,0 -5.8447266,-0.55371094 Q 6.2138672,-0.51269531 3.28125,-1.5996094 l 0,-6.665039 q 2.9326172,1.5585937 5.6601563,2.3583984 2.7480467,0.7792969 5.2910157,0.7792969 2.583984,0 3.958008,-0.8613281 1.374023,-0.8613282 1.374023,-2.4609376 0,-1.4355468 -0.943359,-2.2148442 -0.922852,-0.779296 -3.711914,-1.394531 l -3.055664,-0.676758 q -4.5937504,-0.984375 -6.7265629,-3.137695 -2.1123047,-2.15332 -2.1123047,-5.803711 0,-4.573242 2.953125,-7.034179 2.953125,-2.460938 8.4902346,-2.460938 2.522461,0 5.188476,0.389648 2.666016,0.369141 5.516602,1.12793 z"
             style=""
             id="path4175" /><path
             d="m 54.549141,-13.986328 0,13.986328 -7.382813,0 0,-2.2763672 0,-8.3876958 q 0,-3.014648 -0.143554,-4.142578 -0.123047,-1.127929 -0.451172,-1.661132 -0.430664,-0.717774 -1.168945,-1.107422 -0.738282,-0.410157 -1.681641,-0.410157 -2.296875,0 -3.609375,1.78418 -1.3125,1.763672 -1.3125,4.901367 l 0,11.299805 -7.341797,0 0,-31.910156 7.341797,0 0,12.304687 q 1.661133,-2.009765 3.527344,-2.953125 1.866211,-0.963867 4.12207,-0.963867 3.978516,0 6.029297,2.44043 2.071289,2.440429 2.071289,7.095703 z"
             style=""
             id="path4177" /><path
             d="m 69.898006,-18.272461 q -2.440429,0 -3.732421,1.763672 -1.271485,1.743164 -1.271485,5.044922 0,3.3017576 1.271485,5.0654295 1.291992,1.7431641 3.732421,1.7431641 2.399415,0 3.670899,-1.7431641 1.271484,-1.7636719 1.271484,-5.0654295 0,-3.301758 -1.271484,-5.044922 -1.271484,-1.763672 -3.670899,-1.763672 z m 0,-5.25 q 5.926758,0 9.249024,3.199219 3.342773,3.199219 3.342773,8.859375 0,5.6601561 -3.342773,8.8593748 -3.322266,3.19921876 -9.249024,3.19921876 -5.947265,0 -9.310546,-3.19921876 -3.342774,-3.1992187 -3.342774,-8.8593748 0,-5.660156 3.342774,-8.859375 3.363281,-3.199219 9.310546,-3.199219 z"
             style=""
             id="path4179" /><path
             d="m 83.964561,-22.96875 7.136719,0 3.855469,15.8320313 3.875977,-15.8320313 6.131834,0 3.85547,15.6679688 3.87598,-15.6679688 7.13672,0 L 113.78292,0 105.76437,0 101.88839,-15.791016 98.032921,0 90.014366,0 83.964561,-22.96875 Z"
             style=""
             id="path4181" /><path
             d="m 134.22724,-17.041992 q 2.48145,0 3.54785,-0.922852 1.08692,-0.922851 1.08692,-3.035156 0,-2.091797 -1.08692,-2.994141 -1.0664,-0.902343 -3.54785,-0.902343 l -3.32226,0 0,7.854492 3.32226,0 z m -3.32226,5.455078 0,11.586914 -7.89551,0 0,-30.618164 12.05859,0 q 6.04981,0 8.85938,2.030273 2.83007,2.030274 2.83007,6.418946 0,3.035156 -1.47656,4.983398 -1.45605,1.948242 -4.40918,2.871094 1.62012,0.36914 2.8916,1.68164 1.292,1.291993 2.6045,3.9375005 L 150.654,0 l -8.4082,0 -3.73243,-7.6083984 q -1.12793,-2.296875 -2.29687,-3.1376956 -1.14844,-0.84082 -3.07617,-0.84082 l -2.23535,0 z"
             style=""
             id="path4183" /><path
             d="m 177.40472,-1.6816406 q -2.17382,1.12792966 -4.53222,1.70214841 -2.3584,0.57421875 -4.92188,0.57421875 -7.64941,0 -12.12011,-4.26562496 -4.47071,-4.2861328 -4.47071,-11.6074216 0,-7.341797 4.47071,-11.607422 4.4707,-4.286133 12.12011,-4.286133 2.56348,0 4.92188,0.574219 2.3584,0.574219 4.53222,1.702148 l 0,6.336914 q -2.19433,-1.49707 -4.32714,-2.194336 -2.13282,-0.697265 -4.49122,-0.697265 -4.2246,0 -6.64453,2.707031 -2.41992,2.707031 -2.41992,7.464844 0,4.737304 2.41992,7.4443356 2.41993,2.7070313 6.64453,2.7070313 2.3584,0 4.49122,-0.6972656 2.13281,-0.6972657 4.32714,-2.194336 l 0,6.3369141 z"
             style=""
             id="path4185" /><path
             d="m 203.58154,-5.578125 -12.3457,0 L 189.2876,0 l -7.93653,0 11.34082,-30.618164 9.41309,0 L 213.4458,0 l -7.93652,0 -1.92774,-5.578125 z m -10.37695,-5.680664 8.3877,0 -4.1836,-12.181641 -4.2041,12.181641 z"
             style=""
             id="path4187" /></g></g><g
         id="g4412"
         transform="matrix(1,0,0,-1,1848,164)"><g
           transform="translate(0,91)"
           style="font-variant:normal;font-weight:300;font-size:42px;font-family:Calvert;-inkscape-font-specification:Calvert-Light;writing-mode:lr-tb;fill:#222222;fill-opacity:1;fill-rule:nonzero;stroke:none"
           id="text4414"><path
             d="m 26.044922,-2.6044922 0,-10.7255858 -7.813477,0 0,-1.681641 9.84375,0 0,13.3916018 Q 25.880859,-0.53320312 23.255859,0 q -2.625,0.55371094 -5.61914,0.59472656 -6.644531,0 -10.3769534,-4.20410156 -3.7529297,-4.1835937 -3.7529297,-11.668945 0,-7.50586 3.7529297,-11.709961 3.7324224,-4.183594 10.3769534,-4.183594 2.748047,0 5.188476,0.553711 2.460938,0.594727 4.511719,1.743164 l 0,1.989258 q -2.071289,-1.148438 -4.429687,-1.743164 -2.337891,-0.574219 -4.921875,-0.574219 -6.172852,0 -9.2695317,3.506836 -3.0966797,3.486328 -3.0966797,10.417969 0,7.0341794 3.0966797,10.5820309 3.0966797,3.5683594 9.2695317,3.5683594 2.52246,0 4.511718,-0.3486328 1.96875,-0.3691406 3.547852,-1.1279297 z"
             style=""
             id="path4190" /><path
             d="m 48.642563,-21.348633 q -0.451172,-0.225586 -1.230469,-0.389648 -0.697266,-0.123047 -1.763672,-0.123047 -3.486328,0 -5.783203,2.583984 -1.804687,2.091797 -1.804687,7.177735 l 0,12.099609 -1.845704,0 0,-22.96875 1.845704,0 0,4.306641 q 0.922851,-1.845703 2.583984,-3.117188 2.296875,-1.743164 5.414062,-1.743164 0.799805,0 1.394532,0.06152 0.615234,0 1.189453,0.143554 l 0,1.96875 z"
             style=""
             id="path4192" /><path
             d="m 64.975311,-12.960938 q -4.552734,0 -6.5625,1.620118 -2.009765,1.6201169 -2.009765,4.7373044 0,3.0351562 1.661132,4.3066406 1.661133,1.2714844 3.9375,1.2714844 4.306641,0 6.19336,-3.6503906 1.907226,-3.6503907 1.907226,-6.8701168 l 0,-1.41504 -5.126953,0 z m 7.03418,-0.143554 0,13.104492 -1.866211,0 0,-6.234375 q -1.579102,4.5732422 -4.183594,5.82421875 -2.071289,1.00488281 -4.12207,1.00488281 -3.424805,0 -5.393555,-1.82519526 -1.96875,-1.8457032 -1.96875,-5.4140625 0,-3.5683598 2.563477,-5.7011718 2.563476,-2.15332 8.387695,-2.15332 l 4.675781,0 0,-0.369141 q 0,-3.055664 -1.743164,-5.024414 -1.722656,-1.96875 -5.701172,-1.96875 -1.96875,0 -4.019531,0.738281 -1.3125,0.47168 -3.404297,1.907227 l 0,-2.030274 q 1.825196,-1.127929 3.404297,-1.599609 2.296875,-0.676758 4.40918,-0.676758 4.060547,0 6.685547,2.460938 2.276367,2.112304 2.276367,7.957031 z"
             style=""
             id="path4194" /><path
             d="m 95.909622,-17.71875 0,-14.191406 1.845703,0 0,31.910156 -1.845703,0 0,-5.2089844 q -1.291992,2.9941406 -2.80957,4.1015625 -2.317383,1.70214846 -4.368164,1.70214846 -4.081055,0 -6.788086,-3.32226566 -2.707031,-3.3222656 -2.707031,-8.7363279 0,-5.414063 2.707031,-8.736328 2.707031,-3.322266 6.788086,-3.322266 2.050781,0 4.368164,1.702149 1.517578,1.107421 2.80957,4.101562 z m -12.304687,-1.743164 q -2.378907,2.399414 -2.378907,7.998047 0,5.5986326 2.378907,7.9980467 2.358398,2.3994141 4.983398,2.3994141 2.563477,0 4.942383,-2.3994141 2.358398,-2.3994141 2.358398,-7.9980467 0,-5.598633 -2.358398,-7.998047 -2.378906,-2.399414 -4.942383,-2.399414 -2.625,0 -4.983398,2.399414 z"
             style=""
             id="path4196" /><path
             d="m 108.33572,-9.1054688 0,-13.8632812 1.88671,0 0,13.7402344 q 0,4.4707031 1.43555,6.2958984 1.43555,1.8251953 4.22461,1.8251953 3.26074,0 5.57813,-1.96875 2.33789,-1.9892578 2.33789,-6.9111328 l 0,-12.9814453 1.88672,0 0,22.96875 -1.88672,0 0,-4.3066406 q -1.00489,2.0917968 -2.64551,3.1992187 -2.41992,1.66113284 -5.35254,1.66113284 -3.4043,0 -5.43457,-2.31738284 -2.03027,-2.296875 -2.03027,-7.3417969 z"
             style=""
             id="path4198" /><path
             d="m 144.81731,-12.960938 q -4.55274,0 -6.5625,1.620118 -2.00977,1.6201169 -2.00977,4.7373044 0,3.0351562 1.66113,4.3066406 1.66114,1.2714844 3.9375,1.2714844 4.30664,0 6.19336,-3.6503906 1.90723,-3.6503907 1.90723,-6.8701168 l 0,-1.41504 -5.12695,0 z m 7.03418,-0.143554 0,13.104492 -1.86621,0 0,-6.234375 q -1.57911,4.5732422 -4.1836,5.82421875 -2.07129,1.00488281 -4.12207,1.00488281 -3.4248,0 -5.39355,-1.82519526 -1.96875,-1.8457032 -1.96875,-5.4140625 0,-3.5683598 2.56347,-5.7011718 2.56348,-2.15332 8.3877,-2.15332 l 4.67578,0 0,-0.369141 q 0,-3.055664 -1.74316,-5.024414 -1.72266,-1.96875 -5.70118,-1.96875 -1.96875,0 -4.01953,0.738281 -1.3125,0.47168 -3.40429,1.907227 l 0,-2.030274 q 1.82519,-1.127929 3.40429,-1.599609 2.29688,-0.676758 4.40918,-0.676758 4.06055,0 6.68555,2.460938 2.27637,2.112304 2.27637,7.957031 z"
             style=""
             id="path4200" /><path
             d="m 162.48306,-29.490234 0,6.521484 7.77246,0 0,1.599609 -7.77246,0 0,13.8017582 q 0,2.625 0.67676,3.6708984 1.39453,2.296875 4.06055,2.296875 l 3.03515,0 0,1.5996094 -2.93261,0 q -2.80957,0 -4.77832,-1.640625 -1.96875,-1.640625 -1.96875,-5.9267578 l 0,-13.8017582 -2.74805,0 0,-1.599609 2.74805,0 0,-6.521484 1.90722,0 z"
             style=""
             id="path4202" /><path
             d="m 193.22313,-12.427734 0,1.189453 -17.43164,0 q 0,5.5371091 2.15332,7.7519529 2.37891,2.4609375 7.07519,2.4609375 1.23047,0 3.26075,-0.5332031 2.05078,-0.5332032 4.06054,-1.5996094 l 0,1.9892578 q -2.03027,0.86132811 -4.16308,1.31249999 -2.13282,0.45117187 -3.38379,0.45117187 -5.31153,0 -7.99805,-2.87109376 -2.91211,-3.055664 -2.91211,-8.9619138 0,-6.131836 2.66602,-9.146485 2.72754,-3.137695 7.58789,-3.137695 4.51172,0 6.80859,2.973633 2.27637,3.117187 2.27637,8.121094 z m -1.90723,-0.410157 q 0,-4.839843 -2.17383,-7.054687 -1.82519,-1.96875 -4.96289,-1.96875 -3.4248,0 -5.74218,2.050781 -2.13282,1.907227 -2.56348,6.972656 l 15.44238,0 z"
             style=""
             id="path4204" /><path
             d="m 212.20845,-30.618164 17.30859,0 0,1.702148 -15.21679,0 0,11.750977 14.58105,0 0,1.661133 -14.58105,0 0,13.8427732 15.58593,0 0,1.6611328 -17.67773,0 0,-30.618164 z"
             style=""
             id="path4206" /><path
             d="M 256.05234,-22.96875 247.74667,-11.935547 256.66757,0 254.41171,0 246.61874,-10.458984 238.74374,0 l -2.25586,0 8.98243,-12.017578 -8.16211,-10.951172 2.23535,0 7.07519,9.536133 7.17774,-9.536133 2.25586,0 z"
             style=""
             id="path4208" /><path
             d="m 280.23941,-13.863281 0,13.863281 -1.88672,0 0,-13.740234 q 0,-4.429688 -1.49707,-6.275391 -1.49707,-1.845703 -4.53223,-1.845703 -3.48632,0 -5.5166,2.050781 -2.03027,2.050781 -2.03027,6.829102 l 0,12.981445 -1.88672,0 0,-31.910156 1.88672,0 0,13.186523 q 0.65625,-1.763672 2.33789,-3.137695 2.00977,-1.661133 5.66016,-1.661133 3.40429,0 5.43457,2.44043 2.03027,2.460937 2.03027,7.21875 z"
             style=""
             id="path4210" /><path
             d="m 289.89679,-22.96875 1.88672,0 0,22.96875 -1.88672,0 0,-22.96875 z m 0,-8.941406 1.88672,0 0,2.583984 -1.88672,0 0,-2.583984 z"
             style=""
             id="path4212" /><path
             d="m 317.19122,-3.4658203 q 2.37891,-2.3994141 2.37891,-7.9980467 0,-5.598633 -2.37891,-7.998047 -2.3584,-2.399414 -4.9834,-2.399414 -2.56347,0 -4.94238,2.399414 -2.3584,2.399414 -2.3584,7.998047 0,5.5986326 2.3584,7.9980467 2.37891,2.3994141 4.94238,2.3994141 2.625,0 4.9834,-2.3994141 z M 304.88654,-17.71875 q 1.29199,-2.994141 2.80957,-4.101562 2.31738,-1.702149 4.36816,-1.702149 4.08105,0 6.78809,3.322266 2.70703,3.322265 2.70703,8.736328 0,5.4140623 -2.70703,8.7363279 -2.70704,3.32226566 -6.78809,3.32226566 -2.05078,0 -4.36816,-1.70214846 -1.51758,-1.1074219 -2.80957,-4.1015625 l 0,5.2089844 -1.84571,0 0,-31.910156 1.84571,0 0,14.191406 z"
             style=""
             id="path4214" /><path
             d="m 330.88879,-22.96875 1.88672,0 0,22.96875 -1.88672,0 0,-22.96875 z m 0,-8.941406 1.88672,0 0,2.583984 -1.88672,0 0,-2.583984 z"
             style=""
             id="path4216" /><path
             d="m 345.98108,-29.490234 0,6.521484 7.77246,0 0,1.599609 -7.77246,0 0,13.8017582 q 0,2.625 0.67676,3.6708984 1.39453,2.296875 4.06054,2.296875 l 3.03516,0 0,1.5996094 -2.93262,0 q -2.80957,0 -4.77832,-1.640625 -1.96875,-1.640625 -1.96875,-5.9267578 l 0,-13.8017582 -2.74804,0 0,-1.599609 2.74804,0 0,-6.521484 1.90723,0 z"
             style=""
             id="path4218" /><path
             d="m 358.77679,-22.96875 1.88672,0 0,22.96875 -1.88672,0 0,-22.96875 z m 0,-8.941406 1.88672,0 0,2.583984 -1.88672,0 0,-2.583984 z"
             style=""
             id="path4220" /><path
             d="m 385.53802,-19.03125 q -2.03027,-2.830078 -5.5371,-2.830078 -3.50684,0 -5.53711,2.80957 -2.05079,2.789063 -2.05079,7.546875 0,4.8808596 2.03028,7.6699221 2.03027,2.8095703 5.55762,2.8095703 3.50683,0 5.5371,-2.8095703 2.05079,-2.8300782 2.05079,-7.6699221 0,-4.696289 -2.05079,-7.526367 z m -5.55761,-4.491211 q 4.38867,0 6.93164,3.28125 2.56347,3.301758 2.56347,8.756836 0,5.6396484 -2.56347,8.9003906 -2.54297,3.28125002 -6.93164,3.28125002 -4.42969,0 -6.99317,-3.26074222 -2.54297,-3.2607421 -2.54297,-8.9208984 0,-5.516602 2.56348,-8.777344 2.56348,-3.260742 6.97266,-3.260742 z"
             style=""
             id="path4222" /><path
             d="m 415.39542,-13.863281 0,13.863281 -1.88672,0 0,-13.740234 q 0,-4.470703 -1.43555,-6.295899 -1.43555,-1.825195 -4.22461,-1.825195 -3.26074,0 -5.57812,1.96875 -2.33789,1.989258 -2.33789,6.911133 l 0,12.981445 -1.88672,0 0,-22.96875 1.88672,0 0,4.306641 q 1.00488,-2.091797 2.6455,-3.199219 2.41993,-1.661133 5.35254,-1.661133 3.4043,0 5.43457,2.317383 2.03028,2.296875 2.03028,7.341797 z"
             style=""
             id="path4224" /></g></g><g
         id="g4418"
         transform="matrix(1,0,0,-1,1848,164)"><g
           transform="translate(0,139)"
           style="font-variant:normal;font-weight:bold;font-size:42px;font-family:Calvert;-inkscape-font-specification:Calvert-Bold;writing-mode:lr-tb;fill:#222222;fill-opacity:1;fill-rule:nonzero;stroke:none"
           id="text4420"><path
             d="m 12.099609,-5.8037109 13.473633,0 0,5.8037109 -22.2509764,0 0,-5.8037109 11.1767574,-9.8642581 q 1.497071,-1.353515 2.214844,-2.645508 0.717774,-1.291992 0.717774,-2.686523 0,-2.15332 -1.456055,-3.46582 -1.435547,-1.3125 -3.834961,-1.3125 -1.845703,0 -4.0400391,0.799804 -2.1943359,0.779297 -4.696289,2.337891 l 0,-6.726562 q 2.6660156,-0.881836 5.2705078,-1.333008 2.6044923,-0.47168 5.1064453,-0.47168 5.496094,0 8.53125,2.419922 3.055664,2.419922 3.055664,6.74707 0,2.501953 -1.291992,4.675781 -1.291992,2.153321 -5.43457,5.783204 l -6.541993,5.7421871 z"
             style=""
             id="path4227" /><path
             d="m 42.706289,-15.114258 q -2.071289,0 -3.117187,1.353516 -1.025391,1.333008 -1.025391,4.0195311 0,2.6865234 1.025391,4.040039 1.045898,1.3330078 3.117187,1.3330078 2.091797,0 3.117188,-1.3330078 1.045898,-1.3535156 1.045898,-4.040039 0,-2.6865231 -1.045898,-4.0195311 -1.025391,-1.353516 -3.117188,-1.353516 z m 9.761719,-14.704101 0,5.660156 q -1.948242,-0.922852 -3.670898,-1.353516 -1.722657,-0.451172 -3.363282,-0.451172 -3.527343,0 -5.496093,1.96875 -1.96875,1.948243 -2.296875,5.803711 1.353515,-1.004882 2.932617,-1.49707 1.579101,-0.512695 3.445312,-0.512695 4.696289,0 7.567383,2.748047 2.891602,2.748046 2.891602,7.198242 0,4.9218748 -3.219727,7.8955076 -3.219726,2.95312496 -8.633789,2.95312496 -5.967773,0 -9.249023,-4.01953126 -3.260743,-4.040039 -3.260743,-11.4433593 0,-7.587891 3.814454,-11.915039 3.83496,-4.347656 10.5,-4.347656 2.112304,0 4.101562,0.328125 1.989258,0.328125 3.9375,0.984375 z"
             style=""
             id="path4229" /><path
             d="m 70.551468,-30.618164 7.895508,0 0,27.6445312 q 0,5.7216797 -3.117188,8.5517578 -3.096679,2.8300781 -9.392578,2.8300781 l -1.599609,0 0,-5.9677734 1.230468,0 q 2.460938,0 3.711915,-1.3740235 1.271484,-1.37402339 1.271484,-4.040039 l 0,-27.6445312 z"
             style=""
             id="path4231" /><path
             d="m 87.827248,-8.9414063 0,-14.0273437 7.382812,0 0,2.296875 q 0,1.866211 -0.02051,4.696289 -0.02051,2.80957 -0.02051,3.75293 0,2.7685544 0.143555,3.9990232 0.143555,1.2099609 0.492188,1.7636719 0.451172,0.7177734 1.168945,1.1074218 0.738281,0.3896485 1.681641,0.3896485 2.296877,0 3.609377,-1.7636719 1.3125,-1.7636719 1.3125,-4.9013675 l 0,-11.34082 7.34179,0 0,22.96875 -7.34179,0 0,-3.3222656 q -1.66114,2.0097656 -3.52735,2.97363279 -1.845699,0.94335937 -4.081051,0.94335937 -3.978515,0 -6.070312,-2.44042966 -2.071289,-2.4404297 -2.071289,-7.0957032 z"
             style=""
             id="path4233" /><path
             d="m 138.67514,-13.986328 0,13.986328 -7.38281,0 0,-2.2763672 0,-8.4287108 q 0,-2.973633 -0.14356,-4.101563 -0.12304,-1.127929 -0.45117,-1.661132 -0.43066,-0.717774 -1.16894,-1.107422 -0.73829,-0.410157 -1.68164,-0.410157 -2.29688,0 -3.60938,1.78418 -1.3125,1.763672 -1.3125,4.901367 l 0,11.299805 -7.3418,0 0,-22.96875 7.3418,0 0,3.363281 q 1.66113,-2.009765 3.52734,-2.953125 1.86622,-0.963867 4.12207,-0.963867 3.97852,0 6.0293,2.44043 2.07129,2.440429 2.07129,7.095703 z"
             style=""
             id="path4235" /><path
             d="m 166.02107,-11.545898 0,2.0917964 -17.16504,0 q 0.2666,2.5839844 1.86621,3.8759766 1.59961,1.2919922 4.47071,1.2919922 2.31738,0 4.7373,-0.6767578 2.44043,-0.6972656 5.00391,-2.0917969 l 0,5.6601563 q -2.60449,0.98437495 -5.20899,1.47656245 -2.60449,0.51269531 -5.20898,0.51269531 -6.23438,0 -9.7002,-3.15820316 -3.44531,-3.1787109 -3.44531,-8.9003904 0,-5.619141 3.38379,-8.838867 3.4043,-3.219727 9.35156,-3.219727 5.41407,0 8.6543,3.260742 3.26074,3.260742 3.26074,8.715821 z m -7.54687,-2.44043 q 0,-2.091797 -1.23047,-3.363281 -1.20996,-1.291993 -3.17871,-1.291993 -2.13281,0 -3.46582,1.209961 -1.33301,1.189454 -1.66114,3.445313 l 9.53614,0 z"
             style=""
             id="path4237" /><path
             d="m 179.66386,-14.150391 16.48829,0 0,5.291016 -16.48829,0 0,-5.291016 z"
             style=""
             id="path4239" /><path
             d="m 231.32846,-16.508789 q 3.09668,0.799805 4.69629,2.789062 1.62012,1.96875 1.62012,5.0244145 0,4.5527344 -3.48633,6.9316406 -3.48633,2.35839846 -10.17188,2.35839846 -2.35839,0 -4.7373,-0.38964843 -2.3584,-0.36914063 -4.67578,-1.12792969 l 0,-6.09082034 q 2.21484,1.1074219 4.38867,1.6816407 2.19434,0.5537109 4.30664,0.5537109 3.1377,0 4.79883,-1.0869141 1.68164,-1.086914 1.68164,-3.1171875 0,-2.0917971 -1.72266,-3.1582031 -1.70215,-1.086914 -5.04492,-1.086914 l -3.1582,0 0,-5.085938 3.32226,0 q 2.97364,0 4.42969,-0.922851 1.45606,-0.943359 1.45606,-2.850586 0,-1.763672 -1.41504,-2.727539 -1.41504,-0.963867 -3.99903,-0.963867 -1.90722,0 -3.85547,0.430664 -1.94824,0.430664 -3.87597,1.271484 l 0,-5.783203 q 2.33789,-0.65625 4.63476,-0.984375 2.29688,-0.328125 4.51172,-0.328125 5.96778,0 8.9209,1.96875 2.97363,1.948242 2.97363,5.885742 0,2.686524 -1.41504,4.40918 -1.41503,1.702148 -4.18359,2.399414 z"
             style=""
             id="path4241" /><path
             d="m 254.63747,-30.618164 7.8955,0 0,27.6445312 q 0,5.7216797 -3.11718,8.5517578 -3.09668,2.8300781 -9.39258,2.8300781 l -1.59961,0 0,-5.9677734 1.23047,0 q 2.46094,0 3.71191,-1.3740235 1.27149,-1.37402339 1.27149,-4.040039 l 0,-27.6445312 z"
             style=""
             id="path4243" /><path
             d="m 271.91324,-8.9414063 0,-14.0273437 7.38281,0 0,2.296875 q 0,1.866211 -0.0205,4.696289 -0.0205,2.80957 -0.0205,3.75293 0,2.7685544 0.14355,3.9990232 0.14355,1.2099609 0.49219,1.7636719 0.45117,0.7177734 1.16894,1.1074218 0.73828,0.3896485 1.68164,0.3896485 2.29688,0 3.60938,-1.7636719 1.3125,-1.7636719 1.3125,-4.9013675 l 0,-11.34082 7.3418,0 0,22.96875 -7.3418,0 0,-3.3222656 q -1.66113,2.0097656 -3.52735,2.97363279 -1.8457,0.94335937 -4.08105,0.94335937 -3.97852,0 -6.07031,-2.44042966 -2.07129,-2.4404297 -2.07129,-7.0957032 z"
             style=""
             id="path4245" /><path
             d="m 299.66934,-31.910156 7.3418,0 0,31.910156 -7.3418,0 0,-31.910156 z"
             style=""
             id="path4247" /><path
             d="m 310.59869,-22.96875 7.3418,0 6.17285,15.5859375 5.25,-15.5859375 7.3418,0 -9.65918,25.1425781 q -1.45606,3.834961 -3.4043,5.3525391 -1.92773,1.5380859 -5.10644,1.5380859 l -4.24512,0 0,-4.8193359 2.29688,0 q 1.86621,0 2.70703,-0.5947266 0.86132,-0.5947265 1.333,-2.1328125 L 320.83209,0.88183594 310.59869,-22.96875 Z"
             style=""
             id="path4249" /></g></g></g></g></svg>