<?xml version="1.0" encoding="utf-8"?>
<svg version="1.2" id="Layer_1" xmlns="http://www.w3.org/2000/svg" xmlns:xlink="http://www.w3.org/1999/xlink"
	 x="0px" y="0px" width="1251.559px" height="317.95px" viewBox="0 0 1251.559 317.95" xml:space="preserve">
<path d="M820.161,158.767C820.05,71.175,756.935,0.206,669.316,0.206c-87.618,0-150.732,70.969-150.844,158.561h-0.003
	c0,0.041,0,0.076,0,0.112c0,0.038,0,0.079,0,0.113h0.003c0.111,87.592,63.226,158.562,150.844,158.562
	c87.619,0,150.732-70.97,150.845-158.562h0.003c0-0.034,0-0.075,0-0.113c0-0.036,0-0.071,0-0.112H820.161L820.161,158.767z
	 M669.316,263.368c-55.844,0-92.52-43.338-92.565-104.488c0.047-61.146,36.723-104.485,92.565-104.485
	c55.844,0,92.52,43.339,92.566,104.485C761.836,220.03,725.161,263.368,669.316,263.368z"/>
<polygon points="301.103,5.522 301.103,137.879 325.1,137.879 325.1,187.936 301.103,187.936 301.103,312.008 244.922,312.008 
	244.922,5.522 "/>
<g>
	<polygon points="421.825,187.936 442.525,187.936 442.525,312.008 498.707,312.008 498.707,5.522 442.525,5.522 442.525,137.879 
		422.158,137.879 418.525,137.879 394.527,137.879 394.527,5.522 338.345,5.522 338.345,312.008 394.527,312.008 394.527,187.936 
		418.525,187.936 	"/>
</g>
<polygon points="936.379,169.594 938.678,131.666 938.678,5.522 915.544,5.522 895.222,171.444 892.638,210.695 890.294,170.788 
	871.642,5.522 817.51,5.522 866.406,312.008 918.413,312.008 936.387,169.594 "/>
<polygon points="1134.256,5.522 1115.603,170.788 1113.259,210.695 1110.678,171.444 1090.355,5.522 1067.222,5.522 1044.088,5.522 
	1023.763,171.444 1021.182,210.695 1018.838,170.788 1000.184,5.522 946.054,5.522 994.95,312.008 1046.957,312.008 
	1064.929,169.594 1064.924,169.594 1067.222,131.666 1069.519,169.594 1069.511,169.594 1087.485,312.008 1139.495,312.008 
	1188.389,5.522 "/>
<path d="M74.607,202.185v-90.35c-0.164-0.223-0.337-0.451-0.5-0.671c-9.793-13.318-15.659-25.321-15.659-38.97
	c0-11.422,4.603-21.942,16.159-23.485V0.064C30.424,1.408,1.379,32.741,1.379,72.244c0,44.329,30.889,80.228,53.897,105.997
	C62.36,187.057,68.948,194.793,74.607,202.185"/>
<path d="M74.607,270.29c-0.816,0.082-1.657,0.125-2.532,0.125c-12.423,0-20.992-8.68-20.992-24.961v-32.018L0,220.532v25.209
	c0,44.637,23.156,72.244,72.562,72.244c0.079,0,0.152,0.003,0.229,0.003c0.609,0,1.21-0.026,1.816-0.038V270.29z"/>
<path d="M231.98,243.795c0-41.859-28.396-74.387-53.244-104.297c-7.961-10.56-15.29-19.464-21.362-27.663v0.137
	c-0.164-0.22-0.337-0.448-0.497-0.669c-9.796-13.316-15.661-25.319-15.661-38.968c0-11.423,4.603-21.942,16.159-23.485v-0.138
	c0.956-0.127,1.938-0.214,2.989-0.214c10.601,0,17.311,9.754,17.311,26.418V98.48l51.081-5.579v-21.11
	C228.757,28.53,197.675,0,160.365,0c-1.006,0-1.995,0.035-2.989,0.067v0.139c-44.184,1.343-73.227,32.676-73.227,72.182
	c0,44.326,30.887,80.224,53.896,105.993c7.083,8.816,13.671,16.557,19.331,23.943v-0.138c0.225,0.287,0.47,0.59,0.688,0.881
	c10.521,13.864,17.216,26.837,17.216,42.849c0,12.678-5.503,23.135-17.906,24.373v0.141c-0.814,0.082-1.657,0.126-2.532,0.126
	c-12.423,0-20.989-8.681-20.989-24.958v-32.021l-51.084,7.096v25.211c0,44.64,23.155,72.244,72.562,72.244
	c0.077,0,0.151,0.002,0.229,0.002c0.609,0,1.211-0.025,1.816-0.037v-0.141C201.037,317.088,231.98,285.493,231.98,243.795z"/>
<polygon points="1211.497,5.522 1211.497,100.409 1224.109,166.075 1236.853,166.075 1249.463,100.409 1249.463,5.522 "/>
<rect x="1213.456" y="186.434" width="33.72" height="39.318"/>
</svg>
