<?xml version="1.0" encoding="utf-8"?>
<!-- Generator: Adobe Illustrator 19.2.1, SVG Export Plug-In . SVG Version: 6.00 Build 0)  -->
<svg version="1.1" id="Layer_1" xmlns="http://www.w3.org/2000/svg" xmlns:xlink="http://www.w3.org/1999/xlink" x="0px" y="0px"
	 viewBox="0 0 2268 346" style="enable-background:new 0 0 2268 346;" xml:space="preserve">
<style type="text/css">
	.st0{fill:#222222;}
</style>
<g>
	<defs>
		<polygon id="SVGID_1_" points="145.1,0 145.1,41 162.1,41 162.1,345.5 205.5,345.5 205.5,0 		"/>
	</defs>
	<use xlink:href="#SVGID_1_"  style="overflow:visible;fill-rule:evenodd;clip-rule:evenodd;fill:#1A1A1A;"/>
	<clipPath id="SVGID_2_">
		<use xlink:href="#SVGID_1_"  style="overflow:visible;"/>
	</clipPath>
</g>
<g>
	<defs>
		<path id="SVGID_3_" d="M261.1,304.5h12.3V182.9h-12.3V304.5z M239.4,0l-21.7,21.7v302.1l21.7,21.7h55.7l21.7-21.7V163.5
			l-21.7-21.7h-34V41h12.3v66.9h43.4V21.7L295.1,0H239.4z"/>
	</defs>
	<use xlink:href="#SVGID_3_"  style="overflow:visible;fill-rule:evenodd;clip-rule:evenodd;fill:#1A1A1A;"/>
	<clipPath id="SVGID_4_">
		<use xlink:href="#SVGID_3_"  style="overflow:visible;"/>
	</clipPath>
</g>
<g>
	<defs>
		<polygon id="SVGID_5_" points="353.5,0 353.5,51.5 370.5,51.5 370.5,345.5 434.8,345.5 434.8,0 		"/>
	</defs>
	<use xlink:href="#SVGID_5_"  style="overflow:visible;fill-rule:evenodd;clip-rule:evenodd;fill:#1A1A1A;"/>
	<clipPath id="SVGID_6_">
		<use xlink:href="#SVGID_5_"  style="overflow:visible;"/>
	</clipPath>
</g>
<g>
	<defs>
		<path id="SVGID_7_" d="M511.5,294h12.3V193h-12.3V294z M468.7,0L447,21.7v302.1l21.7,21.7h97.6l21.7-21.7V163.5l-21.7-21.7h-54.8
			V51.5h12.3v56.4H588V21.7L566.3,0H468.7z"/>
	</defs>
	<use xlink:href="#SVGID_7_"  style="overflow:visible;fill-rule:evenodd;clip-rule:evenodd;fill:#1A1A1A;"/>
	<clipPath id="SVGID_8_">
		<use xlink:href="#SVGID_7_"  style="overflow:visible;"/>
	</clipPath>
</g>
<g>
	<defs>
		<polygon id="SVGID_9_" points="0,0 0,28.4 17,28.4 17,345.5 39.3,345.5 39.3,0 		"/>
	</defs>
	<use xlink:href="#SVGID_9_"  style="overflow:visible;fill-rule:evenodd;clip-rule:evenodd;fill:#1A1A1A;"/>
	<clipPath id="SVGID_10_">
		<use xlink:href="#SVGID_9_"  style="overflow:visible;"/>
	</clipPath>
</g>
<g>
	<defs>
		<path id="SVGID_11_" d="M73.8,314.8h12.3V171.1H73.8V314.8z M73.2,0L51.5,21.7v302.1l21.7,21.7h13.5l21.7-21.7V163.5l-21.7-21.7
			H73.8V28.4h12.3v79.6h22.3V21.7L86.7,0H73.2z"/>
	</defs>
	<use xlink:href="#SVGID_11_"  style="overflow:visible;fill-rule:evenodd;clip-rule:evenodd;fill:#1A1A1A;"/>
	<clipPath id="SVGID_12_">
		<use xlink:href="#SVGID_11_"  style="overflow:visible;"/>
	</clipPath>
</g>
<g>
	<defs>
		<polygon id="SVGID_13_" points="624.7,0 624.7,62.1 641.7,62.1 641.7,345.5 729.5,345.5 729.5,0 		"/>
	</defs>
	<use xlink:href="#SVGID_13_"  style="overflow:visible;fill-rule:evenodd;clip-rule:evenodd;fill:#1A1A1A;"/>
	<clipPath id="SVGID_14_">
		<use xlink:href="#SVGID_13_"  style="overflow:visible;"/>
	</clipPath>
</g>
<g>
	<defs>
		<path id="SVGID_15_" d="M832.4,283.6h12.3v-79.9h-12.3V283.6z M763.5,0l-21.7,21.7v302.1l21.7,21.7h147.3l21.7-21.7V163.5
			l-21.7-21.7h-78.4V62.1h12.3v45.9h87.8V21.7L910.8,0H763.5z"/>
	</defs>
	<use xlink:href="#SVGID_15_"  style="overflow:visible;fill-rule:evenodd;clip-rule:evenodd;fill:#1A1A1A;"/>
	<clipPath id="SVGID_16_">
		<use xlink:href="#SVGID_15_"  style="overflow:visible;"/>
	</clipPath>
</g>
<g>
	<defs>
		<polygon id="SVGID_17_" points="969.2,0 969.2,73.5 986.2,73.5 986.2,345.5 1094,345.5 1094,0 		"/>
	</defs>
	<use xlink:href="#SVGID_17_"  style="overflow:visible;fill-rule:evenodd;clip-rule:evenodd;fill:#1A1A1A;"/>
	<clipPath id="SVGID_18_">
		<use xlink:href="#SVGID_17_"  style="overflow:visible;"/>
	</clipPath>
</g>
<g>
	<defs>
		<path id="SVGID_19_" d="M1218.6,272.7h12.3v-58.4h-12.3V272.7z M1128,0l-21.7,21.7v302.1l21.7,21.7h189l21.7-21.7V163.5
			l-21.7-21.7h-98.4V73.5h12.3v34.5h107.8V21.7L1317,0H1128z"/>
	</defs>
	<use xlink:href="#SVGID_19_"  style="overflow:visible;fill-rule:evenodd;clip-rule:evenodd;fill:#1A1A1A;"/>
	<clipPath id="SVGID_20_">
		<use xlink:href="#SVGID_19_"  style="overflow:visible;"/>
	</clipPath>
</g>
<g>
	<defs>
		<polygon id="SVGID_21_" points="1375.4,0 1375.4,81.9 1392.4,81.9 1392.4,345.5 1517.1,345.5 1517.1,0 		"/>
	</defs>
	<use xlink:href="#SVGID_21_"  style="overflow:visible;fill-rule:evenodd;clip-rule:evenodd;fill:#96E5B5;"/>
	<clipPath id="SVGID_22_">
		<use xlink:href="#SVGID_21_"  style="overflow:visible;"/>
	</clipPath>
</g>
<g>
	<defs>
		<path id="SVGID_23_" d="M1663.1,263.2h12.3v-37.4h-12.3V263.2z M1551,1l-21.7,21.7v302.1l21.7,21.7h227.3l21.7-21.7V164.5
			l-21.7-21.7h-115.2v-60h12.3v26H1800V22.7L1778.3,1H1551z"/>
	</defs>
	<use xlink:href="#SVGID_23_"  style="overflow:visible;fill-rule:evenodd;clip-rule:evenodd;fill:#95E5B5;"/>
	<clipPath id="SVGID_24_">
		<use xlink:href="#SVGID_23_"  style="overflow:visible;"/>
	</clipPath>
</g>
<g>
	<path class="st0" d="M1873.1,216c0,1.3-0.2,2.6-0.7,3.7c-0.5,1.1-1.2,2.2-2.2,3.1c-0.9,0.9-2,1.6-3.2,2.1c-1.2,0.5-2.5,0.7-3.9,0.7
		c-2.1,0-3.8-0.4-5.1-1.1c-1.3-0.8-2.5-1.7-3.6-2.9v3.4h-4.9v-9.8h4.9c1.4,3.5,3.9,5.3,7.4,5.3c1.6,0,2.9-0.4,4-1.1s1.5-1.7,1.5-2.9
		c0-1.4-0.5-2.4-1.6-2.9s-2.8-0.9-5.2-1.2c-1.4-0.2-2.6-0.4-3.6-0.6c-0.9-0.2-1.9-0.5-2.8-1c-0.9-0.5-1.7-1.1-2.5-1.9
		c-1.4-1.5-2.1-3.4-2.1-5.6c0-1.5,0.4-3,1.3-4.3c0.8-1.3,2-2.4,3.4-3.1c1.5-0.8,3-1.2,4.7-1.2c1.4,0,2.7,0.2,3.7,0.6
		c1.1,0.4,1.9,0.8,2.5,1.3c0.6,0.5,1.2,1.1,1.9,1.8v-3.2h4.7v8.8h-4.6c-0.7-1.3-1.5-2.4-2.5-3.2c-1-0.9-2.5-1.3-4.5-1.3
		c-0.8,0-1.6,0.2-2.4,0.5c-0.8,0.3-1.3,0.8-1.8,1.3s-0.6,1.1-0.6,1.8c0,0.7,0.2,1.2,0.5,1.7c0.4,0.4,1,0.7,1.8,1
		c0.8,0.2,2.1,0.4,3.7,0.6c3.1,0.3,5.5,0.9,7.2,1.8c1.8,1,3,2.2,3.7,3.6S1873.1,214.7,1873.1,216z"/>
	<path class="st0" d="M1899,225h-7.5v-15.2c0-1-0.3-1.8-0.9-2.4c-0.6-0.6-1.4-0.9-2.4-0.9c-0.9,0-1.7,0.3-2.5,0.8
		c-0.8,0.6-1.4,1.3-1.8,2.2c-0.4,0.9-0.7,2-0.7,3.1v7.9h2.1v4.4h-9.8v-4.4h2.3v-22.3h-2.3V194h7.8v11c1-0.9,2-1.6,3.1-2.2
		c1.1-0.6,2.3-0.9,3.7-0.9c1.1,0,2.1,0.2,2.9,0.5c0.9,0.3,1.6,0.8,2.2,1.4s1.1,1.4,1.4,2.2s0.5,1.8,0.5,2.9v11.7h2.1V225z"/>
	<path class="st0" d="M1923.9,213.7c0,1.7-0.3,3.2-0.8,4.7c-0.5,1.4-1.3,2.7-2.3,3.8c-1,1.1-2.2,1.9-3.6,2.5
		c-1.3,0.6-2.8,0.9-4.3,0.9c-2.1,0-4.1-0.5-5.8-1.5s-3.1-2.4-4-4.3c-1-1.8-1.5-3.8-1.5-6.1c0-2.2,0.5-4.2,1.5-6c1-1.8,2.3-3.2,4-4.3
		s3.7-1.5,5.8-1.5c1.5,0,3,0.3,4.3,0.9c1.3,0.6,2.5,1.5,3.5,2.5c1,1.1,1.8,2.3,2.4,3.8C1923.7,210.5,1923.9,212.1,1923.9,213.7z
		 M1918.1,213.6c0-2-0.5-3.7-1.5-5c-1-1.3-2.3-2-3.9-2c-1,0-2,0.3-2.8,0.9c-0.8,0.6-1.4,1.4-1.9,2.5c-0.4,1.1-0.7,2.3-0.7,3.6
		c0,1.4,0.2,2.6,0.7,3.7s1.1,1.9,1.9,2.5c0.8,0.6,1.7,0.9,2.8,0.9c1.1,0,2-0.3,2.9-0.9c0.8-0.6,1.5-1.4,1.9-2.5
		C1917.9,216.3,1918.1,215.1,1918.1,213.6z"/>
	<path class="st0" d="M1959.4,206.9h-1.9l-4.8,18.1h-6l-3.7-15.6l-3.5,15.6h-6l-5-18.1h-1.9v-4.4h9v4.4h-2.3l3.1,13.2l3.7-17.6h5.8
		l3.8,17.4l3-13h-2.2v-4.4h9V206.9z"/>
	<path class="st0" d="M1988.3,225h-8.3v-7.4c0-3.5-1.8-5.2-5.3-5.2h-4.2v7.8h2.1v4.8H1962v-4.8h2.5v-19.9h-2.4v-4.8h13.6
		c2.8,0,5,0.4,6.5,1.3c1.5,0.9,2.6,1.9,3.1,3.1c0.5,1.2,0.8,2.4,0.8,3.7c0,1.4-0.2,2.5-0.7,3.4c-0.5,0.9-1,1.5-1.5,1.9
		c-0.6,0.4-1.2,0.8-1.8,1.1c1,0.5,1.8,1.1,2.3,1.7c0.6,0.6,1,1.5,1.2,2.6c0.3,1.1,0.4,2.6,0.4,4.5v1.5h2.4V225z M1980,203.8
		c0-1.2-0.5-2.1-1.4-2.7s-2.3-0.9-4.2-0.9h-4v7.5h4.8c1.5,0,2.7-0.3,3.5-1C1979.6,206,1980,205.1,1980,203.8z"/>
	<path class="st0" d="M2018,214.8c-0.7,2.4-1.7,4.5-2.9,6.1c-1.2,1.6-2.7,2.9-4.6,3.7c-1.8,0.8-4,1.2-6.5,1.2c-2.7,0-5-0.7-7.1-2
		c-2.1-1.3-3.7-3.1-4.9-5.5s-1.7-5-1.7-8.1c0-3,0.6-5.7,1.7-8.1s2.7-4.3,4.7-5.6s4.3-2,6.8-2c1.6,0,2.9,0.2,4.1,0.6s2,0.9,2.6,1.4
		c0.6,0.6,1.3,1.3,1.9,2.1v-3.4h5.2v10.3h-5.4c-0.5-1.3-1.1-2.4-1.8-3.2s-1.6-1.5-2.5-1.9s-2-0.7-3.1-0.7c-2.4,0-4.3,0.9-5.7,2.8
		s-2,4.4-2,7.8c0,1.6,0.2,3,0.5,4.3c0.4,1.2,0.9,2.3,1.6,3.2s1.5,1.6,2.5,2.1s2.1,0.7,3.2,0.7c2.1,0,3.9-0.8,5.4-2.4
		c0.4-0.4,0.7-0.9,1-1.4c0.3-0.5,0.6-1.2,0.9-2H2018z"/>
	<path class="st0" d="M2048.4,225h-6.8l-1.9-6.4h-10.4l-1.9,6.4h-6.9v-4.8h2.3l8.2-24.8h7.1l8.1,24.8h2.2V225z M2038.4,214
		l-3.9-13.1l-4,13.1H2038.4z"/>
</g>
<g>
	<path class="st0" d="M1874.5,273h-3.4v-4.6c-0.8,1.3-1.5,2.2-2.2,2.8c-1,0.8-2,1.5-3.2,1.9s-2.4,0.7-3.6,0.7c-2.3,0-4.3-0.7-6.2-2
		s-3.3-3.2-4.4-5.6c-1.1-2.4-1.6-5-1.6-7.8c0-2.9,0.5-5.5,1.6-7.9c1.1-2.4,2.5-4.2,4.4-5.6c1.9-1.4,3.9-2,6.1-2
		c1.1,0,2.1,0.1,3.1,0.4c1,0.3,2,0.8,3,1.5c1,0.8,1.9,1.8,2.7,3.2v-4.6h3.1v9.4h-3.2c-0.4-1.5-0.9-2.7-1.7-3.6
		c-0.8-1-1.8-1.8-2.9-2.4c-1.1-0.6-2.2-0.9-3.4-0.9c-1.3,0-2.7,0.4-4.1,1.2c-1.4,0.8-2.5,2.2-3.4,4c-0.9,1.8-1.4,4.2-1.4,7
		c0,1.7,0.2,3.3,0.7,4.9c0.5,1.5,1.1,2.9,1.9,4c0.8,1.1,1.7,2,2.8,2.6s2.3,0.9,3.5,0.9c0.9,0,1.9-0.2,2.7-0.5s1.7-0.9,2.4-1.5
		s1.4-1.4,1.9-2.2c0.5-0.9,0.9-1.8,1.1-2.7c0.1-0.5,0.2-1.3,0.2-2.4h-6.9v-2.9h10.2V273z"/>
	<path class="st0" d="M1894.8,253.6c-1.1-0.2-1.9-0.3-2.4-0.3c-1.8,0-3.2,0.5-4.3,1.4c-1,1-1.7,2-2.1,3c-0.3,1.1-0.5,1.8-0.5,2.2
		v10.4h3.9v2.6h-10.3v-2.6h3.2V253h-3.4v-2.7h6.6v5.2c0.5-1.1,0.9-1.9,1.3-2.4s0.8-1.1,1.4-1.6c1.1-1,2.5-1.5,4.1-1.5
		c0.5,0,1.3,0.1,2.4,0.2V253.6z"/>
	<path class="st0" d="M1918.4,273h-6.4v-4c-1.9,2.9-4.4,4.4-7.6,4.4c-1.4,0-2.6-0.3-3.7-0.9s-2-1.4-2.6-2.4c-0.6-1-0.9-2.2-0.9-3.5
		c0-2.1,1-3.8,3-4.9c2-1.2,5.2-1.9,9.6-2.3c0.1,0,0.8-0.1,2.1-0.2v-2.3c0-1.3-0.5-2.3-1.4-3c-0.9-0.8-2.1-1.1-3.7-1.1
		c-1.6,0-2.9,0.3-3.7,0.9s-1.4,1.6-1.7,3.1h-3.4c0.2-1.1,0.6-2,0.9-2.7c0.4-0.7,0.9-1.3,1.6-1.9c1.5-1.3,3.5-1.9,6-1.9
		c1.6,0,3.1,0.3,4.4,0.8s2.3,1.4,3,2.5c0.8,1.2,1.1,2.7,1.1,4.5v12.4h3.2V273z M1912,265.1v-3.7l-2.1,0.2c-2.4,0.3-4.2,0.6-5.5,1
		s-2.2,0.9-2.8,1.5c-0.6,0.6-0.9,1.4-0.9,2.4c0,1.2,0.5,2.2,1.4,3c0.9,0.8,2,1.3,3.3,1.3c1.2,0,2.4-0.3,3.4-1c1-0.6,1.8-1.4,2.4-2.4
		C1911.7,266.7,1912,265.8,1912,265.1z"/>
	<path class="st0" d="M1943.8,273h-6.4v-4.4c-1,1.4-2.1,2.5-3.2,3.4s-2.6,1.3-4.5,1.3c-1.6,0-3-0.5-4.4-1.5c-1.3-1-2.4-2.4-3.2-4.2
		s-1.2-3.7-1.2-5.7c0-2.2,0.4-4.1,1.2-5.9s1.9-3.2,3.3-4.2c1.4-1,2.9-1.5,4.6-1.5c1,0,2.1,0.3,3.1,0.8c1,0.5,2,1.3,2.8,2.2
		c0.3,0.3,0.8,0.9,1.4,1.9v-10.3h-3.4v-2.6h6.6v28.3h3.2V273z M1937.4,263.8v-4.3c0-0.9-0.3-1.9-0.9-3c-0.6-1.1-1.5-1.9-2.5-2.6
		s-2.2-1-3.5-1c-0.8,0-1.6,0.2-2.3,0.7c-0.7,0.5-1.3,1.1-1.9,1.9c-0.5,0.8-1,1.8-1.3,2.9c-0.3,1.1-0.4,2.3-0.4,3.5
		c0,1.8,0.2,3.3,0.7,4.6c0.5,1.3,1.2,2.3,2.2,3.1s2,1.1,3.2,1.1c1.1,0,2.2-0.3,3.2-1c1-0.6,1.9-1.5,2.5-2.5
		C1937.1,266.1,1937.4,265,1937.4,263.8z"/>
	<path class="st0" d="M1969.4,273h-6.4v-4.4c-0.6,0.9-1.3,1.7-1.9,2.4c-0.6,0.7-1.5,1.3-2.5,1.8c-1,0.5-2.2,0.8-3.6,0.8
		c-1.2,0-2.2-0.3-3.1-0.9c-0.9-0.6-1.6-1.4-2.1-2.5c-0.5-1.1-0.7-2.3-0.7-3.6V253h-3v-2.7h6.2V266c0,1.4,0.4,2.6,1.1,3.5
		c0.7,0.9,1.7,1.3,2.9,1.3c1.6,0,3.1-0.7,4.5-2.1c0.9-0.9,1.5-1.9,1.8-3.1c0.3-1.1,0.5-2.9,0.5-5.2V253h-3v-2.7h6.3v20h3.1V273z"/>
	<path class="st0" d="M1993.2,273h-6.4v-4c-1.9,2.9-4.4,4.4-7.6,4.4c-1.4,0-2.6-0.3-3.7-0.9s-2-1.4-2.6-2.4c-0.6-1-0.9-2.2-0.9-3.5
		c0-2.1,1-3.8,3-4.9c2-1.2,5.2-1.9,9.6-2.3c0.1,0,0.8-0.1,2.1-0.2v-2.3c0-1.3-0.5-2.3-1.4-3c-0.9-0.8-2.2-1.1-3.7-1.1
		c-1.6,0-2.9,0.3-3.7,0.9s-1.4,1.6-1.7,3.1h-3.4c0.2-1.1,0.6-2,0.9-2.7c0.4-0.7,0.9-1.3,1.6-1.9c1.5-1.3,3.5-1.9,6-1.9
		c1.6,0,3.1,0.3,4.4,0.8s2.3,1.4,3,2.5c0.8,1.2,1.1,2.7,1.1,4.5v12.4h3.2V273z M1986.8,265.1v-3.7l-2.1,0.2c-2.4,0.3-4.2,0.6-5.5,1
		s-2.2,0.9-2.8,1.5c-0.6,0.6-0.9,1.4-0.9,2.4c0,1.2,0.5,2.2,1.4,3c0.9,0.8,2,1.3,3.3,1.3c1.2,0,2.4-0.3,3.4-1c1-0.6,1.8-1.4,2.4-2.4
		C1986.5,266.7,1986.8,265.8,1986.8,265.1z"/>
	<path class="st0" d="M2005.9,253h-5.5v14.8c0,0.9,0.1,1.5,0.2,2c0.2,0.4,0.5,0.7,0.9,0.9s1.1,0.2,2,0.2c0.4,0,0.8,0,1,0l1.2,0v2.5
		c-1.2,0.1-2.5,0.1-3.9,0.1c-1.2,0-2.1-0.1-2.8-0.4c-0.7-0.3-1.2-0.7-1.4-1.4c-0.3-0.7-0.4-1.6-0.4-2.8V253h-3.9v-2.7h3.9v-5.7h3.2
		v5.7h5.5V253z"/>
	<path class="st0" d="M2028.5,262.3h-16.3c0.1,1.6,0.4,3,0.8,4c0.4,1,1,1.9,1.8,2.7c1.1,1.1,2.5,1.7,4.2,1.7c1.3,0,2.4-0.3,3.2-0.9
		s1.5-1.6,2.1-3h3.7c-0.4,1.4-1,2.5-1.8,3.4c-0.9,1-2,1.8-3.2,2.4c-1.2,0.6-2.5,0.8-3.9,0.8c-1.5,0-2.9-0.3-4.2-0.8
		s-2.4-1.4-3.3-2.4s-1.7-2.3-2.2-3.7c-0.5-1.4-0.8-3-0.8-4.7c0-1.6,0.3-3.2,0.8-4.6s1.2-2.7,2.1-3.8c0.9-1.1,1.9-1.9,3.1-2.5
		c1.2-0.6,2.5-0.9,3.9-0.9c1.9,0,3.6,0.5,5.1,1.4c1.5,1,2.7,2.4,3.5,4.2S2028.5,259.8,2028.5,262.3z M2024.8,259.9
		c-0.1-1.4-0.4-2.5-0.7-3.4s-0.8-1.6-1.5-2.2c-1-0.9-2.2-1.4-3.7-1.4c-1.4,0-2.6,0.4-3.7,1.3c-1.1,0.9-1.9,2-2.4,3.5
		c-0.2,0.8-0.4,1.6-0.5,2.2H2024.8z"/>
	<path class="st0" d="M2064.7,273h-22.2v-2.9h3.6v-23.7h-3.5v-3h21.7v8.6h-3.4v-5.6h-11.1v9.9h11v2.9h-11v10.9h11.6V264h3.3V273z"/>
	<path class="st0" d="M2088.2,273h-4.4l-5.7-9l-5.7,9h-4.4v-2.6h2.6l5.8-9.1l-5.2-8.2h-2.6v-2.7h4.5l5.1,8.1l5.1-8.1h4.4v2.7h-2.5
		l-5.2,8.2l5.8,9.1h2.5V273z"/>
	<path class="st0" d="M2113.9,273h-6.5v-14.5c0-3.7-1.4-5.6-4.2-5.6c-0.9,0-1.9,0.3-2.8,0.9s-1.8,1.4-2.5,2.3
		c-0.3,0.5-0.6,0.9-0.7,1.3c-0.2,0.4-0.3,1-0.4,1.7c-0.1,0.7-0.1,1.8-0.1,3.1v8.1h3.1v2.6h-9.7v-2.6h3.4v-25.6h-3.3v-2.6h6.5v12.8
		c1-1.4,2.2-2.6,3.5-3.5c1.4-0.9,2.8-1.4,4.2-1.4c0.8,0,1.5,0.2,2.3,0.5s1.4,0.8,1.9,1.3c0.7,0.7,1.2,1.7,1.5,2.8
		c0.3,1.2,0.5,2.7,0.5,4.6v11.1h3.3V273z"/>
	<path class="st0" d="M2125.3,273h-9.9v-2.6h3.4V253h-3.4v-2.7h6.6v20h3.2V273z M2121.8,247.1h-3.8v-3.8h3.8V247.1z"/>
	<path class="st0" d="M2150.3,261.9c0,2-0.4,3.9-1.2,5.6s-1.9,3.1-3.3,4.2c-1.4,1-2.9,1.5-4.5,1.5c-1.2,0-2.3-0.2-3.2-0.7
		c-0.9-0.5-1.6-1-2.2-1.6c-0.6-0.6-1.2-1.4-1.9-2.3v4.2h-6.4v-2.6h3.2v-25.6h-3.1v-2.6h6.3v13.1c0.4-0.7,0.9-1.4,1.5-2.1
		c0.7-0.8,1.5-1.4,2.5-2c1-0.6,2.1-0.9,3.3-0.9c1.2,0,2.4,0.3,3.5,0.9c1.1,0.6,2.1,1.4,2.9,2.5c0.8,1.1,1.4,2.3,1.9,3.8
		C2150,258.8,2150.3,260.3,2150.3,261.9z M2146.7,261.6c0-1.3-0.2-2.5-0.5-3.6c-0.3-1.1-0.7-2-1.3-2.7c-0.5-0.8-1.2-1.3-2-1.8
		s-1.6-0.6-2.5-0.6c-1,0-2.1,0.3-3.1,1s-1.9,1.6-2.5,2.6c-0.6,1.1-1,2.1-1,3.2v3.8c0,1.2,0.3,2.4,0.9,3.5c0.6,1.1,1.4,1.9,2.4,2.6
		c1,0.7,2.1,1,3.2,1c1.9,0,3.5-0.8,4.6-2.4C2146.2,266.5,2146.7,264.3,2146.7,261.6z"/>
	<path class="st0" d="M2162.9,273h-9.9v-2.6h3.4V253h-3.4v-2.7h6.6v20h3.2V273z M2159.5,247.1h-3.8v-3.8h3.8V247.1z"/>
	<path class="st0" d="M2175.9,253h-5.5v14.8c0,0.9,0.1,1.5,0.2,2c0.2,0.4,0.5,0.7,0.9,0.9s1.1,0.2,2,0.2c0.4,0,0.8,0,1,0l1.2,0v2.5
		c-1.2,0.1-2.5,0.1-3.9,0.1c-1.2,0-2.1-0.1-2.8-0.4c-0.7-0.3-1.2-0.7-1.4-1.4c-0.3-0.7-0.4-1.6-0.4-2.8V253h-3.9v-2.7h3.9v-5.7h3.2
		v5.7h5.5V253z"/>
	<path class="st0" d="M2187.4,273h-9.9v-2.6h3.4V253h-3.4v-2.7h6.6v20h3.2V273z M2184,247.1h-3.8v-3.8h3.8V247.1z"/>
	<path class="st0" d="M2210.8,261.7c0,2.3-0.4,4.4-1.3,6.2c-0.9,1.8-2.1,3.2-3.7,4.2c-1.6,1-3.4,1.5-5.4,1.5c-1.5,0-2.9-0.3-4.2-0.9
		s-2.4-1.4-3.3-2.4c-0.9-1-1.6-2.3-2.1-3.8s-0.7-3.1-0.7-4.8c0-2.3,0.4-4.3,1.3-6c0.9-1.8,2.1-3.1,3.7-4.1s3.4-1.5,5.4-1.5
		c1.5,0,2.9,0.3,4.1,0.9s2.4,1.4,3.3,2.4s1.7,2.3,2.2,3.7C2210.6,258.4,2210.8,260,2210.8,261.7z M2207.2,261.6
		c0-1.8-0.3-3.3-0.8-4.6s-1.4-2.3-2.4-3c-1-0.7-2.2-1.1-3.6-1.1c-1.4,0-2.5,0.4-3.5,1.1c-1,0.7-1.7,1.8-2.3,3.1s-0.8,2.9-0.8,4.7
		c0,2.8,0.6,5,1.7,6.6s2.8,2.4,4.9,2.4c1.4,0,2.6-0.4,3.7-1.1c1-0.7,1.8-1.8,2.4-3.2S2207.2,263.4,2207.2,261.6z"/>
	<path class="st0" d="M2237.2,273h-6.5v-15c0-1.1-0.2-2-0.5-2.8c-0.3-0.8-0.9-1.4-1.5-1.8s-1.4-0.6-2.3-0.6c-1.1,0-2.1,0.3-3.1,1
		c-1,0.7-1.8,1.6-2.4,2.6c-0.6,1.1-0.9,2.2-0.9,3.4v10.5h3.2v2.6h-9.6v-2.6h3.2V253h-3.2v-2.7h6.4v4.2c0.9-1.2,1.9-2.3,3-3.2
		s2.6-1.4,4.5-1.4c1,0,1.9,0.2,2.7,0.6s1.5,0.9,2.1,1.6s1,1.5,1.3,2.5s0.5,2.1,0.5,3.4v12.3h3.2V273z"/>
</g>
<g>
	<path class="st0" d="M1871.2,321h-20.7v-4.8l11.6-11.5c1.1-1.1,1.9-1.9,2.3-2.6c0.4-0.7,0.6-1.4,0.6-2.2c0-0.8-0.2-1.4-0.5-2
		c-0.4-0.6-0.9-1.1-1.5-1.4c-0.6-0.3-1.4-0.5-2.1-0.5c-3,0-4.6,2-4.8,5.9h-6c0-0.8,0.1-1.5,0.1-2.1c0.1-0.6,0.1-1.1,0.3-1.5
		c0.1-0.4,0.3-0.9,0.5-1.5c0.7-1.6,1.9-3.1,3.6-4.3c1.7-1.2,3.7-1.8,6.1-1.8c1.5,0,2.9,0.2,4.1,0.6c1.3,0.4,2.4,1,3.3,1.8
		s1.7,1.7,2.2,2.8c0.5,1.1,0.8,2.2,0.8,3.5c0,1.5-0.4,2.9-1.2,4.2s-2.2,2.9-4.4,4.8l-8.6,7.9h9v-2.6h5.2V321z"/>
	<path class="st0" d="M1898,311c0,1.5-0.3,2.9-0.8,4.2s-1.3,2.4-2.3,3.4s-2.1,1.7-3.4,2.2c-1.3,0.5-2.8,0.8-4.3,0.8
		c-1.7,0-3.2-0.3-4.7-1c-1.4-0.7-2.6-1.7-3.6-2.9c-1-1.3-1.8-2.8-2.3-4.6c-0.6-1.8-0.8-3.8-0.8-5.9c0-2.6,0.3-4.9,0.8-6.9
		c0.5-2,1.3-3.7,2.3-5.1c1-1.4,2.3-2.5,3.8-3.2c1.5-0.7,3.2-1.1,5.1-1.1c0.9,0,1.8,0.1,2.6,0.3c0.9,0.2,1.7,0.6,2.5,1
		c0.8,0.4,1.5,0.9,2.2,1.5c0.8,0.8,1.5,1.5,1.9,2.4c0.4,0.8,0.7,1.8,0.8,2.9h-6c-0.4-1-0.9-1.8-1.5-2.3c-0.6-0.5-1.5-0.7-2.5-0.7
		c-0.7,0-1.4,0.2-2,0.5c-0.6,0.3-1.2,0.8-1.7,1.3c-0.5,0.6-0.9,1.3-1.2,2.1c-0.2,0.4-0.3,0.7-0.4,1.1s-0.2,0.8-0.2,1.4
		s-0.1,1.1-0.1,1.8c1.9-2.2,4-3.3,6.5-3.3c1.8,0,3.4,0.4,4.9,1.3c1.4,0.9,2.6,2.1,3.4,3.7C1897.6,307.2,1898,309,1898,311z
		 M1891.9,310.8c0-1-0.2-1.9-0.6-2.7s-1-1.4-1.7-1.8c-0.7-0.4-1.5-0.7-2.5-0.7c-0.8,0-1.6,0.2-2.4,0.7c-0.7,0.5-1.3,1.1-1.8,1.9
		c-0.4,0.8-0.6,1.7-0.6,2.6c0,1,0.2,1.9,0.6,2.8c0.4,0.8,1,1.5,1.7,2s1.5,0.7,2.4,0.7c1.4,0,2.6-0.5,3.4-1.5
		S1891.9,312.4,1891.9,310.8z"/>
	<path class="st0" d="M1926.3,296.2h-2.3v19.5c0,1.5-0.2,2.7-0.6,3.5s-1,1.4-1.8,1.8s-2.1,0.5-3.6,0.5c-0.5,0-2.2-0.1-5.2-0.4v-4.9
		h2.7c0.9,0,1.5-0.2,1.9-0.7c0.4-0.5,0.6-1.3,0.6-2.3v-16.9h-2.4v-4.8h10.8V296.2z"/>
	<path class="st0" d="M1952.2,321h-7.4v-2.7c-1,0.8-1.8,1.4-2.4,1.8s-1.3,0.8-2.2,1c-0.8,0.3-1.8,0.4-2.8,0.4
		c-1.4,0-2.6-0.3-3.6-0.9c-1-0.6-1.8-1.4-2.3-2.5c-0.5-1.1-0.8-2.4-0.8-3.9v-11.3h-2.2v-4.4h7.7v14.5c0,1.3,0.3,2.3,0.8,2.9
		s1.3,1,2.4,1c0.9,0,1.7-0.3,2.5-0.8c0.8-0.6,1.4-1.3,1.9-2.2s0.7-1.9,0.7-2.9v-8.2h-2.2v-4.4h7.7v18.1h2.1V321z"/>
	<path class="st0" d="M1978.2,321h-7.5v-15c0-1.1-0.3-1.9-0.9-2.5s-1.4-0.9-2.5-0.9c-0.9,0-1.7,0.3-2.5,0.8s-1.4,1.2-1.9,2.1
		c-0.5,0.9-0.7,1.8-0.7,2.8v8.3h2.1v4.4h-9.7v-4.4h2.1v-13.7h-2.1v-4.4h7.6v2.9c0.9-1,1.9-1.8,2.9-2.5s2.4-1,4-1
		c1.3,0,2.5,0.3,3.6,0.9c1.1,0.6,1.9,1.4,2.5,2.4s0.9,2.2,0.9,3.4v12h2.1V321z"/>
	<path class="st0" d="M2002.2,310.8H1986c0.2,2.5,0.9,4.1,2.1,4.9s2.3,1.2,3.3,1.2c2.2,0,3.7-1.1,4.6-3.3h5.8c-0.3,1.6-1,3-2,4.2
		c-1,1.2-2.2,2.1-3.7,2.7c-1.5,0.6-3.1,1-4.9,1c-1.5,0-3-0.3-4.3-0.9c-1.3-0.6-2.5-1.4-3.5-2.5c-1-1.1-1.7-2.3-2.3-3.8
		c-0.5-1.4-0.8-3-0.8-4.7s0.3-3.3,0.8-4.7c0.6-1.4,1.3-2.7,2.3-3.8c1-1.1,2.1-1.9,3.5-2.5s2.8-0.9,4.3-0.9c1.8,0,3.4,0.4,4.9,1.2
		s2.7,1.9,3.7,3.4c0.9,1.4,1.5,2.7,1.7,4S2002.1,309.2,2002.2,310.8z M1996.1,307c-0.2-1.4-0.7-2.5-1.5-3.3
		c-0.8-0.8-1.9-1.1-3.2-1.1c-0.8,0-1.5,0.2-2.2,0.5c-0.7,0.3-1.3,0.9-1.7,1.5s-0.8,1.4-1.1,2.4H1996.1z"/>
	<path class="st0" d="M2036.5,312.4h-21.4v-3.7h21.4V312.4z"/>
	<path class="st0" d="M2072.2,310.9c0,2-0.5,3.8-1.5,5.4c-1,1.7-2.3,3-4,3.9c-1.7,1-3.5,1.4-5.5,1.4c-1.7,0-3.2-0.2-4.6-0.7
		s-2.5-1.2-3.5-2.1c-1-0.9-1.8-2-2.4-3.4c-0.6-1.3-1-2.9-1.2-4.6h5.9c0.3,1.7,0.9,3.1,1.8,4.1s2.1,1.5,3.6,1.5c1,0,1.9-0.2,2.7-0.7
		s1.4-1.1,1.9-1.9c0.5-0.8,0.7-1.6,0.7-2.5c0-1.4-0.4-2.5-1.3-3.4c-0.9-0.9-1.9-1.4-3.1-1.4c-0.6,0-1.4,0.2-2.4,0.6l-3-3.4l8.6-7.5
		h-9.2v2.8h-5.2v-7.7h21.1v5.5l-6.5,5.7c1.4,0.1,2.6,0.5,3.7,1.3s1.9,1.8,2.5,3.1C2071.9,308.2,2072.2,309.5,2072.2,310.9z"/>
	<path class="st0" d="M2100.3,296.2h-2.3v19.5c0,1.5-0.2,2.7-0.6,3.5s-1,1.4-1.8,1.8s-2.1,0.5-3.6,0.5c-0.5,0-2.2-0.1-5.2-0.4v-4.9
		h2.7c0.9,0,1.5-0.2,1.9-0.7c0.4-0.5,0.6-1.3,0.6-2.3v-16.9h-2.4v-4.8h10.8V296.2z"/>
	<path class="st0" d="M2126.2,321h-7.4v-2.7c-1,0.8-1.8,1.4-2.4,1.8s-1.3,0.8-2.2,1c-0.8,0.3-1.8,0.4-2.8,0.4
		c-1.4,0-2.6-0.3-3.6-0.9c-1-0.6-1.8-1.4-2.3-2.5c-0.5-1.1-0.8-2.4-0.8-3.9v-11.3h-2.2v-4.4h7.7v14.5c0,1.3,0.3,2.3,0.8,2.9
		s1.3,1,2.4,1c0.9,0,1.7-0.3,2.5-0.8c0.8-0.6,1.4-1.3,1.9-2.2s0.7-1.9,0.7-2.9v-8.2h-2.2v-4.4h7.7v18.1h2.1V321z"/>
	<path class="st0" d="M2138.6,321h-9.8v-4.4h2.2v-22.3h-2.2V290h7.7v26.6h2.2V321z"/>
	<path class="st0" d="M2163.1,302.9h-1.9l-7.9,23.4c-0.2,0.7-0.5,1.2-0.9,1.6s-1,0.6-1.7,0.8c-0.7,0.2-1.7,0.2-2.9,0.2
		c-1.5,0-2.7-0.1-3.5-0.2v-4.5h3c0.4,0,0.7-0.1,1-0.2c0.2-0.1,0.4-0.4,0.6-0.7c0.2-0.3,0.4-0.9,0.6-1.6l0.2-0.6l-7.1-18.3h-1.9v-4.4
		h9.4v4.4h-2l4.1,11.4l3.6-11.4h-1.9v-4.4h9.3V302.9z"/>
</g>
</svg>
